<?xml version="1.0" encoding="UTF-8" standalone="no"?>
<!-- Created with Inkscape (http://www.inkscape.org/) -->

<svg
   width="16"
   height="16"
   viewBox="0 0 16 16"
   version="1.1"
   id="svg848"
   inkscape:version="1.2.2 (732a01da63, 2022-12-09)"
   sodipodi:docname="More_variables.svg"
   xml:space="preserve"
   xmlns:inkscape="http://www.inkscape.org/namespaces/inkscape"
   xmlns:sodipodi="http://sodipodi.sourceforge.net/DTD/sodipodi-0.dtd"
   xmlns="http://www.w3.org/2000/svg"
   xmlns:svg="http://www.w3.org/2000/svg"
   xmlns:rdf="http://www.w3.org/1999/02/22-rdf-syntax-ns#"
   xmlns:cc="http://creativecommons.org/ns#"
   xmlns:dc="http://purl.org/dc/elements/1.1/"><title
     id="title5848">More_variables</title><sodipodi:namedview
     id="namedview850"
     pagecolor="#ffffff"
     bordercolor="#000000"
     borderopacity="0.25"
     inkscape:showpageshadow="2"
     inkscape:pageopacity="0.0"
     inkscape:pagecheckerboard="0"
     inkscape:deskcolor="#d1d1d1"
     inkscape:document-units="mm"
     showgrid="false"
     inkscape:zoom="11.313709"
     inkscape:cx="10.650795"
     inkscape:cy="15.202795"
     inkscape:window-width="1920"
     inkscape:window-height="1009"
     inkscape:window-x="-8"
     inkscape:window-y="-8"
     inkscape:window-maximized="1"
     inkscape:current-layer="layer1" /><defs
     id="defs845" /><g
     inkscape:label="Слой 1"
     inkscape:groupmode="layer"
     id="layer1"><rect
       style="fill:#60e9ff;fill-opacity:1;stroke-width:1.2483;stroke-dashoffset:28.7769;paint-order:markers fill stroke"
       id="rect4770"
       width="16.000002"
       height="5.1888952"
       x="-7.1525574e-07"
       y="5.4055524" /><rect
       style="fill:#ffffff;fill-opacity:1;stroke-width:2.78002;stroke-dashoffset:28.7769;paint-order:markers fill stroke"
       id="rect7497"
       width="16"
       height="2.4045525"
       x="2.6645353e-15"
       y="6.7977238" /><g
       aria-label="More"
       id="text1637"
       style="font-size:4.12903px;font-family:'Public Pixel';-inkscape-font-specification:'Public Pixel, Normal';fill:#a2a2a2;stroke-width:0;stroke-dashoffset:28.7769"><path
         d="M 0,3.6129014 V 0 H 1.0322576 V 0.51612878 H 1.5483863 V 1.0322576 H 2.0645151 V 0.51612878 H 2.5806439 V 0 H 3.6129014 V 3.6129014 H 2.5806439 V 1.5483863 H 2.0645151 V 2.0645151 H 1.5483863 V 1.5483863 H 1.0322576 v 2.0645151 z"
         id="path2503" /><path
         d="M 4.645159,3.0967727 H 4.1290302 V 1.5483863 H 4.645159 V 1.0322576 H 7.2258029 V 1.5483863 H 7.7419317 V 3.0967727 H 7.2258029 V 3.6129014 H 4.645159 Z M 6.7096741,1.5483863 H 5.1612878 v 1.5483864 h 1.5483863 z"
         id="path2505" /><path
         d="M 8.2580605,3.6129014 V 1.0322576 H 9.290318 V 1.5483863 H 9.8064468 V 2.0645151 H 9.290318 V 3.6129014 Z M 11.354833,1.5483863 h 0.516129 V 2.0645151 H 10.838704 V 1.5483863 H 9.8064468 V 1.0322576 h 1.5483862 z"
         id="path2507" /><path
         d="M 14.967735,2.0645151 V 1.5483863 H 13.419348 V 2.0645151 Z M 12.903219,3.0967727 H 12.387091 V 1.5483863 h 0.516128 V 1.0322576 h 2.580644 v 0.5161287 h 0.516129 v 1.0322576 h -2.580644 v 0.5161288 h 2.064515 v 0.5161287 h -2.580644 z"
         id="path2509" /></g><g
       aria-label="var"
       id="text2501"
       style="font-size:5.56522px;font-family:'Public Pixel';-inkscape-font-specification:'Public Pixel, Normal';fill:#a2a2a2;stroke-width:0;stroke-dashoffset:28.7769"><path
         d="M 0.69565248,13.913043 H 0 v -1.391305 h 1.391305 v 1.391305 h 0.6956525 v 0.695652 h 0.6956524 v -0.695652 h 0.6956525 v -1.391305 h 1.391305 v 1.391305 H 4.1739149 v 0.695652 H 3.4782624 v 0.695653 H 2.7826099 V 16 H 2.0869575 V 15.304348 H 1.391305 V 14.608695 H 0.69565248 Z"
         id="path2512" /><path
         d="M 6.2608724,15.304348 H 5.5652199 V 14.608695 H 6.2608724 V 13.913043 H 9.0434823 V 13.21739 H 6.2608724 V 12.521738 H 9.7391348 V 13.21739 H 10.434787 V 16 H 6.2608724 Z m 0.6956524,0 H 9.0434823 V 14.608695 H 6.9565248 Z"
         id="path2514" /><path
         d="m 11.13044,16 v -3.478262 h 1.391305 v 0.695652 h 0.695652 v 0.695653 H 12.521745 V 16 Z m 4.173915,-2.78261 h 0.695652 v 0.695653 H 14.608702 V 13.21739 h -1.391305 v -0.695652 h 2.086958 z"
         id="path2516" /></g></g><metadata
     id="metadata5846"><rdf:RDF><cc:Work
         rdf:about=""><dc:title>More_variables</dc:title></cc:Work></rdf:RDF></metadata></svg>
