<?xml version="1.0" encoding="UTF-8" standalone="no"?>
<svg
   width="16"
   height="16"
   version="1.1"
   id="svg4"
   sodipodi:docname="calculator.svg"
   inkscape:version="1.3.2 (091e20e, 2023-11-25, custom)"
   xml:space="preserve"
   xmlns:inkscape="http://www.inkscape.org/namespaces/inkscape"
   xmlns:sodipodi="http://sodipodi.sourceforge.net/DTD/sodipodi-0.dtd"
   xmlns="http://www.w3.org/2000/svg"
   xmlns:svg="http://www.w3.org/2000/svg"><defs
     id="defs4" /><sodipodi:namedview
     id="namedview4"
     pagecolor="#505050"
     bordercolor="#eeeeee"
     borderopacity="1"
     inkscape:showpageshadow="0"
     inkscape:pageopacity="0"
     inkscape:pagecheckerboard="0"
     inkscape:deskcolor="#505050"
     inkscape:zoom="27.378291"
     inkscape:cx="-0.23741438"
     inkscape:cy="9.9531415"
     inkscape:window-width="3407"
     inkscape:window-height="1417"
     inkscape:window-x="25"
     inkscape:window-y="-8"
     inkscape:window-maximized="1"
     inkscape:current-layer="svg4" /><path
     style="fill:#e0e0e0;fill-opacity:1"
     d="M 4.1470306,14.992828 C 3.7695856,14.858214 3.5750051,14.678558 3.4044987,14.307247 3.2731068,14.021116 3.2653701,13.660984 3.2653701,7.831065 c 0,-5.829919 0.00774,-6.1900511 0.1391286,-6.4761821 C 3.5750051,0.98357254 3.7695856,0.80391606 4.1470306,0.66930228 4.5228372,0.53527283 11.836886,0.51218703 12.309994,0.643537 c 0.382892,0.10630276 0.760087,0.4834984 0.86639,0.8663898 0.05716,0.2058833 0.08326,2.2051995 0.08355,6.3997697 4.23e-4,6.1003445 4.23e-4,6.1003445 -0.170003,6.4338755 -0.200746,0.392868 -0.449214,0.591665 -0.857991,0.686472 -0.163415,0.0379 -1.984333,0.06823 -4.0464859,0.06739 -2.9674845,-0.0012 -3.8096476,-0.02302 -4.0384255,-0.104608 z M 8.5011403,14.115623 C 8.6569841,14.072337 8.8814508,13.921721 9.0124178,13.772558 9.2965965,13.448896 9.3273203,13.017744 9.0931999,12.638929 8.8133927,12.186192 8.6287283,12.14852 6.6892501,12.14852 c -1.6794974,0 -1.7471415,0.0058 -1.9957904,0.171425 -0.3498332,0.23301 -0.5535951,0.661517 -0.4859706,1.021987 0.058017,0.309256 0.4614738,0.744656 0.7396524,0.798213 0.3593062,0.06918 3.2894406,0.04896 3.5539988,-0.02452 z m 3.4971107,-0.255576 c 0.566827,-0.566827 0.343025,-1.434555 -0.423211,-1.640881 -0.613521,-0.165203 -1.192984,0.27487 -1.192984,0.906011 0,0.636726 0.351443,0.984161 1.001094,0.989675 0.307417,0.0026 0.393237,-0.03294 0.615101,-0.254805 z M 5.5583033,11.002882 C 6.0964205,10.725735 6.2987087,10.265851 6.1052831,9.7593729 5.79256,8.940519 4.6656594,8.8944844 4.2904238,9.6852347 4.1234626,10.037079 4.1787926,10.389777 4.45186,10.714299 c 0.3033021,0.360454 0.7438144,0.475349 1.1064433,0.288583 z m 3.2104978,-0.06321 C 9.311954,10.608489 9.4012767,9.8451196 8.9497133,9.3935562 8.7372642,9.1811071 8.6660535,9.1565994 8.2612009,9.1565994 c -0.4048526,0 -0.4760634,0.024508 -0.6885125,0.2369568 -0.6146044,0.6146048 -0.1758974,1.6939698 0.6885125,1.6939698 0.1458088,0 0.3742288,-0.06654 0.5076002,-0.147857 z m 2.9737349,0.03632 C 12.261652,10.707543 12.447674,10.198582 12.207789,9.7030452 12.018286,9.3115837 11.715145,9.118727 11.289332,9.118727 c -0.269725,0 -0.364673,0.045533 -0.613208,0.2940681 -0.261496,0.2614963 -0.294068,0.3351369 -0.294068,0.6648499 0,0.419341 0.128151,0.649248 0.482245,0.865164 0.284844,0.173689 0.584618,0.185015 0.878235,0.03318 z M 5.7163619,7.8447379 C 6.2570275,7.5316953 6.3351994,6.8000423 5.8770171,6.3410788 5.4427471,5.9060684 4.8341492,5.9326578 4.437568,6.4039678 4.0092999,6.9129355 4.1611285,7.5779353 4.7769394,7.8903937 5.141788,8.0755155 5.3339047,8.0661786 5.7163619,7.8447379 Z M 8.6163238,7.9470687 C 8.7074923,7.9209403 8.8864394,7.780709 9.0139841,7.6354437 9.4279889,7.1639182 9.2620537,6.4091311 8.6840924,6.1348705 c -0.3233975,-0.1534622 -0.5223856,-0.1534622 -0.845783,0 -0.3344109,0.1586884 -0.5617911,0.5335256 -0.5617911,0.926115 0,0.3743135 0.3353781,0.8069649 0.7083356,0.9137818 0.2362074,0.067651 0.3100776,0.064411 0.6314699,-0.027699 z M 11.831607,7.8635597 C 12.154209,7.6967358 12.364788,7.2036216 12.277916,6.8184392 12.097072,6.0166034 11.1029,5.7740967 10.573897,6.4027811 10.225551,6.816766 10.35915,7.614722 10.818541,7.8639846 11.09135,8.0120093 11.544905,8.011819 11.831607,7.8635597 Z m 0.0436,-2.9903129 c 0.35249,-0.1228787 0.400467,-0.3274422 0.400467,-1.7074952 0,-1.2258154 -0.0035,-1.2532172 -0.185919,-1.4355875 C 11.903838,1.544245 11.903838,1.544245 8.2612009,1.544245 c -3.6426371,0 -3.6426371,0 -3.8285561,0.1859191 -0.1823704,0.1823703 -0.1859191,0.2097721 -0.1859191,1.4355875 0,1.3543371 0.050224,1.584995 0.3707322,1.7026217 0.2796437,0.1026292 6.9644521,0.1071181 7.2577511,0.00487 z"
     id="path1" /></svg>
