<?xml version="1.0" encoding="UTF-8" standalone="no"?>
<svg
   width="16"
   height="16"
   version="1.1"
   id="svg1"
   sodipodi:docname="Component.svg"
   inkscape:version="1.3.2 (091e20e, 2023-11-25, custom)"
   xmlns:inkscape="http://www.inkscape.org/namespaces/inkscape"
   xmlns:sodipodi="http://sodipodi.sourceforge.net/DTD/sodipodi-0.dtd"
   xmlns="http://www.w3.org/2000/svg"
   xmlns:svg="http://www.w3.org/2000/svg">
  <defs
     id="defs1" />
  <sodipodi:namedview
     id="namedview1"
     pagecolor="#505050"
     bordercolor="#eeeeee"
     borderopacity="1"
     inkscape:showpageshadow="0"
     inkscape:pageopacity="0"
     inkscape:pagecheckerboard="0"
     inkscape:deskcolor="#505050"
     inkscape:zoom="38.71875"
     inkscape:cx="-2.5569007"
     inkscape:cy="12.229217"
     inkscape:window-width="3407"
     inkscape:window-height="1417"
     inkscape:window-x="25"
     inkscape:window-y="-8"
     inkscape:window-maximized="1"
     inkscape:current-layer="svg1" />
  <path
     id="path1"
     d="M 2 1 A 1 1 0 0 0 1 2 L 1 10 A 1 1 0 0 0 2 11 L 5 11 L 5 11.25 A 2 2 0 1 0 7 11.25 L 7 11 L 10 11 A 1 1 0 0 0 11 10 L 11 7 L 11.25 7 A 2 2 0 1 0 11.25 5 L 11 5 L 11 2 A 1 1 0 0 0 10 1 L 2 1 z M 5.9511719 1.2792969 C 6.1185719 1.2701534 6.2744307 1.3251527 6.4257812 1.4042969 L 9.2949219 3.0644531 C 9.4301815 3.2067284 9.6365783 3.3229416 9.2851562 3.6445312 L 6.3261719 5.3144531 C 6.1107587 5.4239228 5.8805972 5.4823444 5.5859375 5.3144531 L 2.5742188 3.5644531 C 2.4153933 3.4085242 2.3598137 3.2358539 2.625 3.0136719 L 5.6347656 1.3730469 C 5.7454085 1.3114219 5.8507402 1.2847569 5.9511719 1.2792969 z M 6.0332031 2.6894531 C 5.6520888 2.6894531 5.3417969 2.9070874 5.3417969 3.1777344 C 5.3417969 3.448379 5.6520888 3.6679688 6.0332031 3.6679688 C 6.4143173 3.6679687 6.7226562 3.4483811 6.7226562 3.1777344 C 6.7226563 2.9070883 6.4143179 2.6894531 6.0332031 2.6894531 z M 1.8691406 4.0332031 C 1.9335624 4.0353281 2.0095282 4.0494568 2.0957031 4.0742188 C 3.0773271 4.6476906 5.1953125 5.8535156 5.1953125 5.8535156 C 5.5889109 6.104997 5.5354819 6.2930662 5.5761719 6.4941406 L 5.5859375 9.6835938 C 5.4998457 10.167951 5.2323451 10.165924 4.9355469 10.083984 L 1.8652344 8.2734375 C 1.7066216 8.1255786 1.4907006 8.0558101 1.4941406 7.6835938 C 1.4941406 7.6835938 1.4580738 5.5430631 1.4648438 4.4238281 C 1.5003081 4.2094734 1.5899828 4.0239031 1.8691406 4.0332031 z M 10.107422 4.0507812 C 10.347874 4.0487345 10.420931 4.2373663 10.476562 4.4433594 L 10.480469 7.71875 C 10.438667 8.0884717 10.273485 8.1715083 10.115234 8.2695312 L 6.890625 10.068359 C 6.6433259 10.095889 6.3579755 10.272959 6.2753906 9.6542969 L 6.3007812 6.4492188 C 6.2997989 6.2047287 6.4106434 6.0093456 6.6894531 5.8847656 L 9.8066406 4.1230469 C 9.9299153 4.0738499 10.027272 4.0514652 10.107422 4.0507812 z M 2.6523438 5.6191406 C 2.3485583 5.6191352 2.1015586 5.9000697 2.1015625 6.2480469 C 2.1015586 6.5960221 2.3485543 6.8789002 2.6523438 6.8789062 C 2.9561289 6.8789109 3.2031285 6.5960238 3.203125 6.2480469 C 3.2031285 5.9000703 2.9561284 5.6191358 2.6523438 5.6191406 z M 4.25 7.5273438 C 3.9462137 7.5273391 3.6992152 7.8082734 3.6992188 8.15625 C 3.6992152 8.5042267 3.9462152 8.7871148 4.25 8.7871094 C 4.553784 8.7871157 4.8007853 8.5042276 4.8007812 8.15625 C 4.8007853 7.8082743 4.5537895 7.5273384 4.25 7.5273438 z "
     style="fill:#e0e0e0;fill-opacity:1" />
</svg>
