<?xml version="1.0" encoding="UTF-8" standalone="no"?>
<svg
   width="16"
   height="16"
   version="1.1"
   id="svg1"
   sodipodi:docname="effect_area_3d.svg"
   inkscape:version="1.3.2 (091e20e, 2023-11-25, custom)"
   xmlns:inkscape="http://www.inkscape.org/namespaces/inkscape"
   xmlns:sodipodi="http://sodipodi.sourceforge.net/DTD/sodipodi-0.dtd"
   xmlns="http://www.w3.org/2000/svg"
   xmlns:svg="http://www.w3.org/2000/svg">
  <defs
     id="defs1" />
  <sodipodi:namedview
     id="namedview1"
     pagecolor="#505050"
     bordercolor="#eeeeee"
     borderopacity="1"
     inkscape:showpageshadow="0"
     inkscape:pageopacity="0"
     inkscape:pagecheckerboard="0"
     inkscape:deskcolor="#505050"
     inkscape:zoom="45.254834"
     inkscape:cx="2.7842329"
     inkscape:cy="7.6124464"
     inkscape:window-width="3407"
     inkscape:window-height="1417"
     inkscape:window-x="25"
     inkscape:window-y="-8"
     inkscape:window-maximized="1"
     inkscape:current-layer="svg1" />
  <path
     fill="#fc7f7f"
     d="M 1,1 V 5 H 3 V 3 H 5 V 1 Z m 10,0 v 2 h 2 v 2 h 2 V 1 Z M 4,4 v 8 z m 2,2 v 4 z m -5,5 v 4 H 5 V 13 H 3 v -2 z m 12,0 v 2 h -2 v 2 h 4 v -4 z"
     id="path1"
     sodipodi:nodetypes="cccccccccccccccccccccccccccccccccc"
     style="fill:#fc7f7f;fill-opacity:1" />
  <path
     id="path12"
     style="display:inline;fill:#fc7f7f;stroke:#d2d3d5;stroke-width:0;stroke-linecap:round;stroke-linejoin:round;stroke-dasharray:none;paint-order:markers fill stroke;fill-opacity:1"
     d="M 7.7175263,1.4524809 C 7.9758008,2.5147092 8.0427544,4.9610285 7.058664,4.7659441 6.6449569,4.6839312 5.2129216,3.9106951 5.3064556,3.2660745 5.3999889,2.6214536 4.2846704,3.9996785 3.4808742,6.9332899 2.6770765,9.8669014 3.9190832,13.274301 8.0733595,13.292864 14.798902,13.165622 12.081772,5.7812031 11.24134,3.3591991 9.8067637,7.4360076 10.018622,2.4789977 7.7175263,1.4524809 Z m 0.2333231,3.9114342 c 0.1387966,-0.00759 0.2683867,0.038031 0.3938779,0.1036501 l 2.3798547,1.3765014 c 0.112173,0.1179647 0.283085,0.2143034 -0.0083,0.4809466 L 8.2617919,8.7098081 c -0.1786076,0.090766 -0.3693068,0.139206 -0.6136211,0 L 5.1522377,7.2586778 C 5.0205494,7.1293919 4.9738234,6.9868272 5.193698,6.8026079 L 7.6896442,5.4426908 c 0.091736,-0.051084 0.1779266,-0.074222 0.2612052,-0.078776 z m 0.068409,1.169197 c -0.3159967,0 -0.5721606,0.1819129 -0.5721606,0.4063167 0,0.2244058 0.2561637,0.4063168 0.5721606,0.4063168 0.3159965,0 0.57216,-0.1819131 0.57216,-0.4063168 0,-0.2244028 -0.2561635,-0.4063167 -0.57216,-0.4063167 z M 4.5676391,7.6484102 c 0.053413,0.00178 0.115125,0.012644 0.1865747,0.033175 C 5.5681165,8.1570731 7.324789,9.1575926 7.324789,9.1575926 7.6511235,9.366107 7.6061453,9.5215754 7.6398912,9.6882924 l 0.00829,2.6452046 c -0.07138,0.401596 -0.2929043,0.399625 -0.5389895,0.331681 L 4.5634933,11.164294 C 4.4319814,11.0417 4.2538388,10.983676 4.2566829,10.675055 c 0,0 -0.030485,-1.7752483 -0.024874,-2.7032499 0.029402,-0.1777291 0.1043738,-0.3310884 0.3358339,-0.323394 z m 6.8306819,0.014509 c 0.199367,-0.0017 0.258696,0.1546714 0.304737,0.3254682 l 0.004,2.7156886 c -0.03461,0.306562 -0.171405,0.374807 -0.302616,0.456082 L 8.7302633,12.65274 C 8.5252194,12.67556 8.2887681,12.821571 8.2202943,12.308613 L 8.2410423,9.6509704 C 8.2402734,9.4482514 8.3333141,9.2857556 8.5644852,9.1824627 L 11.147491,7.7230396 c 0.102219,-0.040802 0.184379,-0.059552 0.250834,-0.060119 z M 5.2165022,8.9627206 c -0.2518824,-4.5e-6 -0.4560732,0.2338865 -0.4560701,0.5224068 -3.1e-6,0.288521 0.2041898,0.5224116 0.4560701,0.5224066 0.2518794,5e-6 0.4560727,-0.2338856 0.4560695,-0.5224066 3.2e-6,-0.2885172 -0.2041896,-0.5224113 -0.4560695,-0.5224068 z m 1.3246751,1.5817324 c -0.2518795,-4e-6 -0.4560731,0.233887 -0.4560696,0.522407 -3.5e-6,0.288517 0.2041896,0.522411 0.4560696,0.522408 0.2518823,3e-6 0.4560731,-0.233887 0.4560699,-0.522408 3.2e-6,-0.288521 -0.2041897,-0.522411 -0.4560699,-0.522407 z"
     sodipodi:nodetypes="cssssccccccccccccssssssccccccccssccccccccscccccccccccc" />
</svg>
