<?xml version="1.0" encoding="UTF-8" standalone="no"?>
<!-- Created with Inkscape (http://www.inkscape.org/) -->

<svg
   width="16"
   height="15.999999"
   viewBox="0 0 4.2333332 4.233333"
   version="1.1"
   id="svg1"
   xml:space="preserve"
   sodipodi:docname="effect_data.svg"
   inkscape:version="1.3.2 (091e20e, 2023-11-25, custom)"
   xmlns:inkscape="http://www.inkscape.org/namespaces/inkscape"
   xmlns:sodipodi="http://sodipodi.sourceforge.net/DTD/sodipodi-0.dtd"
   xmlns="http://www.w3.org/2000/svg"
   xmlns:svg="http://www.w3.org/2000/svg"><sodipodi:namedview
     id="namedview1"
     pagecolor="#505050"
     bordercolor="#eeeeee"
     borderopacity="1"
     inkscape:showpageshadow="0"
     inkscape:pageopacity="0"
     inkscape:pagecheckerboard="0"
     inkscape:deskcolor="#505050"
     inkscape:zoom="45.254834"
     inkscape:cx="1.9887378"
     inkscape:cy="9.3360192"
     inkscape:window-width="3407"
     inkscape:window-height="1417"
     inkscape:window-x="25"
     inkscape:window-y="-8"
     inkscape:window-maximized="1"
     inkscape:current-layer="svg1" /><defs
     id="defs1"><inkscape:perspective
       sodipodi:type="inkscape:persp3d"
       inkscape:vp_x="0 : 2.1166665 : 1"
       inkscape:vp_y="0 : 1000 : 0"
       inkscape:vp_z="4.2333332 : 2.1166665 : 1"
       inkscape:persp3d-origin="2.1166666 : 1.411111 : 1"
       id="perspective1" /></defs><path
     id="path12"
     style="display:inline;fill:#d2d3d5;stroke:#d2d3d5;stroke-width:0.00564427;stroke-linecap:round;stroke-linejoin:round;stroke-dasharray:none;paint-order:markers fill stroke"
     d="m 2.1144199,0.11266658 c -0.044282,0.00241 -0.090117,0.0147196 -0.1389013,0.0418909 L 0.64823191,0.87773002 C 0.53130687,0.97569372 0.5561563,1.0515058 0.62618504,1.1202574 L 1.9534708,1.891935 c 0.1299203,0.074026 0.2313301,0.048267 0.3263093,0 L 3.5850177,1.1555342 C 3.7399656,1.01374 3.6490711,0.96250952 3.5894325,0.89977802 L 2.3238753,0.16778639 c -0.066733,-0.034896 -0.135646,-0.0591513 -0.2094554,-0.0551198 z m 0.036379,0.62175183 c 0.1680397,0 0.3042614,0.0967376 0.3042614,0.21606991 0,0.11933258 -0.1362219,0.21606968 -0.3042614,0.21606968 -0.1680396,0 -0.3042616,-0.096738 -0.3042616,-0.21606968 0,-0.11933271 0.136222,-0.21606991 0.3042616,-0.21606991 z M 0.31530865,1.327508 c -0.12308528,-0.0041 -0.16295183,0.077461 -0.17858868,0.1719735 -0.002987,0.4934892 0.0132263,1.4375254 0.0132263,1.4375254 -0.001513,0.1641166 0.093219,0.1949723 0.163154,0.2601658 L 1.6668468,3.9953083 c 0.1308633,0.036131 0.2486638,0.037178 0.2866231,-0.176383 l -0.00441,-1.4066582 c -0.017941,-0.088657 0.00598,-0.1713313 -0.1675639,-0.2822136 0,0 -0.93415802,-0.5320535 -1.36697226,-0.7849067 -0.0379957,-0.010918 -0.0708116,-0.016704 -0.0992162,-0.017641 z m 3.63239755,0.00773 c -0.03534,3.01e-4 -0.079035,0.010277 -0.1333889,0.031969 L 2.4407293,2.1432817 C 2.3177975,2.1982111 2.2683228,2.2846236 2.2687559,2.3924233 l -0.011029,1.4132728 c 0.036413,0.2727785 0.1621518,0.1951364 0.2711898,0.1829982 L 3.9510129,3.1949682 c 0.069775,-0.04322 0.1425195,-0.079511 0.1609509,-0.2425272 l -0.0022,-1.4441401 C 4.0852746,1.4174751 4.053725,1.3343223 3.9477057,1.3352248 Z M 0.66035851,2.0264328 c 0.13394368,-2.1e-6 0.2425288,0.1243754 0.24252723,0.277804 1.57e-6,0.1534288 -0.10858334,0.277806 -0.24252723,0.2778039 -0.1339458,-2.7e-6 -0.24252914,-0.124381 -0.24252743,-0.277809 -1.71e-6,-0.1534289 0.10858339,-0.2778064 0.24252743,-0.277804 z M 1.3647899,2.8675614 c 0.1339458,-2.4e-6 0.2425292,0.1243756 0.2425274,0.277804 1.8e-6,0.1534288 -0.108584,0.2778064 -0.2425274,0.277804 -0.1339437,2.2e-6 -0.2425288,-0.1243755 -0.2425272,-0.277804 -1.6e-6,-0.1534289 0.1085828,-0.2778061 0.2425272,-0.277804 z"
     sodipodi:nodetypes="ccccccccccsssssscccccccccsccccccccscccccccccccc" /></svg>
