<?xml version="1.0" encoding="UTF-8" standalone="no"?>
<svg
   width="16"
   height="16"
   version="1.1"
   id="svg1"
   sodipodi:docname="ray_cast_3d.svg"
   inkscape:version="1.3.2 (091e20e, 2023-11-25, custom)"
   xmlns:inkscape="http://www.inkscape.org/namespaces/inkscape"
   xmlns:sodipodi="http://sodipodi.sourceforge.net/DTD/sodipodi-0.dtd"
   xmlns="http://www.w3.org/2000/svg"
   xmlns:svg="http://www.w3.org/2000/svg">
  <defs
     id="defs1" />
  <sodipodi:namedview
     id="namedview1"
     pagecolor="#505050"
     bordercolor="#eeeeee"
     borderopacity="1"
     inkscape:showpageshadow="0"
     inkscape:pageopacity="0"
     inkscape:pagecheckerboard="0"
     inkscape:deskcolor="#505050"
     inkscape:zoom="19.078125"
     inkscape:cx="11.321867"
     inkscape:cy="5.3202293"
     inkscape:window-width="3407"
     inkscape:window-height="1417"
     inkscape:window-x="25"
     inkscape:window-y="-8"
     inkscape:window-maximized="1"
     inkscape:current-layer="svg1" />
  <path
     id="path1"
     d="M 7 1 L 7 2.7050781 C 7.2900472 3.318458 7.8139989 4.6324434 7.7832031 6.0800781 C 7.753814 7.4615875 7.2858874 8.1120413 7 8.3808594 L 7 10 L 4 10 L 8 15 L 12 10 L 9 10 L 9 1 L 7 1 z "
     style="fill:#fc7f7f;fill-opacity:1" />
  <path
     id="path12"
     style="display:inline;fill:#fc7f7f;stroke:#d2d3d5;stroke-width:0;stroke-linecap:round;stroke-linejoin:round;stroke-dasharray:none;paint-order:markers fill stroke;fill-opacity:1"
     d="M 4.1978808,1.1704294 C 4.365921,1.861544 4.4094828,3.4531862 3.7692071,3.3262589 3.5000377,3.2728989 2.5683167,2.7698105 2.6291727,2.3504027 2.6900281,1.9309948 1.9643713,2.8277055 1.441399,4.7363929 0.91842677,6.6450804 1.7265098,8.8620289 4.4293953,8.8741054 8.8052157,8.7913187 7.0373782,3.9868141 6.4905693,2.4109922 5.5571953,5.0634748 5.6950364,1.8383092 4.1978808,1.1704294 Z m 0.1518064,2.5448858 c 0.090304,-0.00494 0.1746196,0.024744 0.2562679,0.067437 l 1.5483981,0.8955891 c 0.072984,0.076748 0.184183,0.139432 -0.00539,0.3129169 L 4.5520063,5.8922444 c -0.116207,0.059054 -0.2402814,0.090571 -0.3992386,0 L 2.5288418,4.9480994 C 2.4431618,4.8639829 2.4127606,4.7712264 2.5558171,4.6513681 L 4.1797478,3.7665688 c 0.059686,-0.033236 0.115764,-0.048291 0.1699473,-0.051254 z m 0.044511,0.7607113 c -0.205596,0 -0.3722632,0.1183574 -0.3722632,0.2643605 0,0.1460045 0.1666672,0.2643611 0.3722632,0.2643611 0.2055958,0 0.3722631,-0.1183574 0.3722631,-0.2643611 0,-0.1460024 -0.1666673,-0.2643605 -0.3722631,-0.2643605 z m -2.245718,0.7256434 c 0.034752,0.00115 0.074902,0.00822 0.1213911,0.021583 0.5295471,0.3093648 1.6724863,0.9603307 1.6724863,0.9603307 0.2123219,0.1356644 0.1830579,0.2368177 0.2050138,0.345288 l 0.0054,1.7210427 C 4.1063217,8.5112041 3.9621916,8.5099222 3.8020819,8.4657155 L 2.1457806,7.4891997 C 2.0602157,7.4094357 1.9443115,7.3716848 1.9461617,7.1708871 c 0,0 -0.019834,-1.1550243 -0.016185,-1.7588075 0.01913,-0.1156353 0.067908,-0.2154151 0.2185035,-0.2104097 z m 4.4442277,0.00943 c 0.1297136,-0.00108 0.1683147,0.1006334 0.1982689,0.2117588 l 0.00269,1.7669057 C 6.771126,7.3892241 6.6821247,7.4336257 6.5967551,7.4865057 L 4.8568297,8.45762 C 4.7234223,8.472469 4.5695809,8.5674665 4.5250297,8.2337219 L 4.5385282,6.504587 C 4.5380011,6.3726927 4.598532,6.266968 4.748938,6.1997628 l 1.6805737,-0.94954 c 0.066503,-0.026547 0.1199624,-0.038747 0.1632,-0.039117 z m -4.0220601,0.845696 c -0.1638813,-3.3e-6 -0.2967335,0.1521723 -0.2967315,0.3398915 -2e-6,0.1877201 0.1328517,0.3398954 0.2967315,0.3398924 0.1638797,3e-6 0.2967334,-0.1521731 0.2967314,-0.3398924 2e-6,-0.1877169 -0.132851,-0.3398948 -0.2967314,-0.3398915 z M 3.432518,7.0859142 c -0.1638799,-3e-6 -0.2967338,0.1521731 -0.2967313,0.3398916 -2.5e-6,0.1877178 0.1328511,0.3398955 0.2967313,0.3398931 0.1638813,2.4e-6 0.2967333,-0.1521738 0.2967314,-0.3398931 C 3.7292513,7.2380865 3.5963979,7.0859112 3.432518,7.0859142 Z"
     sodipodi:nodetypes="cssssccccccccccccssssssccccccccssccccccccscccccccccccc" />
</svg>
