<?xml version="1.0" encoding="UTF-8" standalone="no"?>
<svg
   width="16"
   height="16"
   version="1.1"
   id="svg1"
   sodipodi:docname="effect_shape_cast_3d.svg"
   inkscape:version="1.3.2 (091e20e, 2023-11-25, custom)"
   xmlns:inkscape="http://www.inkscape.org/namespaces/inkscape"
   xmlns:sodipodi="http://sodipodi.sourceforge.net/DTD/sodipodi-0.dtd"
   xmlns="http://www.w3.org/2000/svg"
   xmlns:svg="http://www.w3.org/2000/svg">
  <defs
     id="defs1" />
  <sodipodi:namedview
     id="namedview1"
     pagecolor="#505050"
     bordercolor="#eeeeee"
     borderopacity="1"
     inkscape:showpageshadow="0"
     inkscape:pageopacity="0"
     inkscape:pagecheckerboard="0"
     inkscape:deskcolor="#505050"
     inkscape:zoom="38.15625"
     inkscape:cx="13.81163"
     inkscape:cy="7.8755119"
     inkscape:window-width="3407"
     inkscape:window-height="1417"
     inkscape:window-x="25"
     inkscape:window-y="-8"
     inkscape:window-maximized="1"
     inkscape:current-layer="svg1" />
  <path
     id="path1"
     d="M 7.8007812 0.35742188 C 7.9851717 1.1157788 8.032649 2.8619329 7.3300781 2.7226562 C 7.0347193 2.6641044 6.0113482 2.1125579 6.078125 1.6523438 C 6.1449028 1.1921293 5.3492464 2.1751373 4.7753906 4.2695312 C 4.2725277 6.1048268 4.8904099 8.2000344 7.046875 8.6992188 C 7.0214837 8.6994116 7.0268071 8.6990006 7 8.6992188 L 7 10 L 4 10 L 8 15 L 12 10 L 9 10 L 9 8.7109375 C 12.579035 7.9688284 10.872634 3.3217163 10.316406 1.71875 C 9.2922191 4.629307 9.4436034 1.0902832 7.8007812 0.35742188 z M 7.9667969 3.1503906 C 8.0658878 3.1449706 8.1584554 3.1777614 8.2480469 3.2246094 L 9.9472656 4.2070312 C 10.027346 4.2912502 10.149409 4.3604166 9.9414062 4.5507812 L 8.1894531 5.5390625 C 8.0619394 5.6038634 7.9244223 5.6384454 7.75 5.5390625 L 5.96875 4.5019531 C 5.8747337 4.409652 5.8410714 4.3092542 5.9980469 4.1777344 L 7.7792969 3.2070312 C 7.8447868 3.1705613 7.9073417 3.153642 7.9667969 3.1503906 z M 8.015625 3.984375 C 7.7900255 3.984375 7.6074219 4.1151821 7.6074219 4.2753906 C 7.6074219 4.4356008 7.7900255 4.5644531 8.015625 4.5644531 C 8.2412236 4.5644531 8.4238281 4.4355993 8.4238281 4.2753906 C 8.4238281 4.1151827 8.2412236 3.984375 8.015625 3.984375 z M 5.5507812 4.78125 C 5.5889162 4.78252 5.6325818 4.7900335 5.6835938 4.8046875 C 6.2646636 5.1441527 7.5195312 5.8574219 7.5195312 5.8574219 C 7.7525107 6.006286 7.7200485 6.117304 7.7441406 6.2363281 L 7.75 8.125 C 7.6990305 8.411711 7.5409217 8.4117891 7.3652344 8.3632812 L 5.5488281 7.2910156 C 5.4549382 7.2034897 5.3280475 7.1617402 5.3300781 6.9414062 C 5.3300781 6.9414062 5.3065419 5.6742476 5.3105469 5.0117188 C 5.3315419 4.8848326 5.385533 4.7757568 5.5507812 4.78125 z M 10.427734 4.7910156 C 10.570069 4.7898056 10.611662 4.9015004 10.644531 5.0234375 L 10.648438 6.9628906 C 10.623708 7.1817541 10.525317 7.229085 10.431641 7.2871094 L 8.5234375 8.3535156 C 8.3770504 8.3698087 8.2070894 8.4736383 8.1582031 8.1074219 L 8.1738281 6.2109375 C 8.1732476 6.0662105 8.2392578 5.9506972 8.4042969 5.8769531 L 10.248047 4.8339844 C 10.321027 4.8048554 10.380289 4.7914206 10.427734 4.7910156 z M 6.0136719 5.71875 C 5.8338456 5.7187473 5.6894505 5.8858135 5.6894531 6.0917969 C 5.6894505 6.2977811 5.8338474 6.4648473 6.0136719 6.4648438 C 6.1934964 6.4648473 6.3398455 6.2977803 6.3398438 6.0917969 C 6.3398455 5.8858161 6.1934972 5.7187473 6.0136719 5.71875 z M 6.9609375 6.8476562 C 6.781113 6.8476537 6.634763 7.0147197 6.6347656 7.2207031 C 6.634763 7.4266838 6.781113 7.5937526 6.9609375 7.59375 C 7.1407637 7.5937526 7.2851588 7.4266865 7.2851562 7.2207031 C 7.2851588 7.0147188 7.140762 6.8476528 6.9609375 6.8476562 z "
     style="fill:#fc7f7f;fill-opacity:1" />
</svg>
