<?xml version="1.0" encoding="UTF-8" standalone="no"?>
<!-- Created with Inkscape (http://www.inkscape.org/) -->

<svg
   width="16"
   height="15.999999"
   viewBox="0 0 4.2333332 4.233333"
   version="1.1"
   id="svg1"
   xml:space="preserve"
   sodipodi:docname="effect.svg"
   inkscape:version="1.3.2 (091e20e, 2023-11-25, custom)"
   xmlns:inkscape="http://www.inkscape.org/namespaces/inkscape"
   xmlns:sodipodi="http://sodipodi.sourceforge.net/DTD/sodipodi-0.dtd"
   xmlns="http://www.w3.org/2000/svg"
   xmlns:svg="http://www.w3.org/2000/svg"><sodipodi:namedview
     id="namedview1"
     pagecolor="#505050"
     bordercolor="#eeeeee"
     borderopacity="1"
     inkscape:showpageshadow="0"
     inkscape:pageopacity="0"
     inkscape:pagecheckerboard="0"
     inkscape:deskcolor="#505050"
     inkscape:zoom="45.254834"
     inkscape:cx="1.9887378"
     inkscape:cy="9.3360192"
     inkscape:window-width="3407"
     inkscape:window-height="1417"
     inkscape:window-x="25"
     inkscape:window-y="-8"
     inkscape:window-maximized="1"
     inkscape:current-layer="svg1" /><defs
     id="defs1"><inkscape:perspective
       sodipodi:type="inkscape:persp3d"
       inkscape:vp_x="0 : 2.1166665 : 1"
       inkscape:vp_y="0 : 1000 : 0"
       inkscape:vp_z="4.2333332 : 2.1166665 : 1"
       inkscape:persp3d-origin="2.1166666 : 1.411111 : 1"
       id="perspective1" /></defs><path
     id="path12"
     style="display:inline;fill:#ffca5f;stroke:#d2d3d5;stroke-width:0.00370879;stroke-linecap:round;stroke-linejoin:round;stroke-dasharray:none;paint-order:markers fill stroke;fill-opacity:1"
     d="M 2.037535,0.06018232 C 2.1277826,0.43135157 2.1511779,1.286157 1.807312,1.2179896 1.6627523,1.1893322 1.1623632,0.91914409 1.1950463,0.69389747 1.2277292,0.46865071 0.83800893,0.95023713 0.55714215,1.9753147 0.27627529,3.0003922 0.71026348,4.1910236 2.1618721,4.1975096 4.5119453,4.1530485 3.5625124,1.5727466 3.2688439,0.72643753 2.767567,2.1509769 2.8415957,0.41887306 2.037535,0.06018232 Z M 2.119064,1.4269357 c 0.048499,-0.00265 0.093781,0.013289 0.1376308,0.036218 l 0.8315811,0.4809842 c 0.039196,0.04122 0.098917,0.074883 -0.0029,0.1680548 L 2.2277151,2.5960748 c -0.06241,0.031716 -0.1290451,0.048642 -0.2144146,0 L 1.1411587,2.0890134 C 1.0951435,2.0438377 1.0788163,1.994022 1.155646,1.9296511 L 2.0277923,1.4544619 c 0.032055,-0.01785 0.062172,-0.025935 0.091272,-0.027526 z m 0.023904,0.4085468 c -0.1104172,0 -0.1999273,0.063565 -0.1999273,0.1419773 0,0.078413 0.08951,0.1419773 0.1999273,0.1419773 0.1104171,0 0.1999271,-0.063565 0.1999271,-0.1419773 0,-0.078412 -0.08951,-0.1419773 -0.1999271,-0.1419773 z M 0.93688522,2.2251957 c 0.0186643,6.205e-4 0.0402274,0.00442 0.0651939,0.011592 0.2843981,0.1661474 0.8982236,0.5157542 0.8982236,0.5157542 0.1140295,0.07286 0.098313,0.1271849 0.1101046,0.1854398 l 0.0029,0.9243009 C 1.9883621,4.0026102 1.910956,4.0019218 1.8249676,3.9781803 L 0.93543652,3.4537338 C 0.88948298,3.4108963 0.82723551,3.3906214 0.82822935,3.2827815 c 0,0 -0.0106533,-0.6203164 -0.008691,-0.9445835 0.0102748,-0.062103 0.0364707,-0.1156906 0.11734882,-0.113002 z m 2.38681178,0.00507 c 0.069664,-5.924e-4 0.090395,0.054046 0.1064825,0.1137267 l 0.00144,0.9489298 C 3.4195122,3.4000426 3.3717125,3.4238891 3.3258641,3.4522887 L 2.391428,3.9738341 C 2.3197804,3.98181 2.2371584,4.0328281 2.2132319,3.8535878 l 0.00725,-0.9286473 c -2.845e-4,-0.070835 0.032225,-0.1276152 0.113002,-0.1637084 l 0.9025669,-0.509959 c 0.035718,-0.014257 0.064427,-0.020809 0.087648,-0.021007 z m -2.1600827,0.454183 c -0.088014,-1.5e-6 -0.1593634,0.081726 -0.1593623,0.1825422 -1.1e-6,0.1008166 0.071349,0.1825438 0.1593623,0.1825422 0.088013,1.4e-6 0.1593633,-0.081726 0.1593622,-0.1825422 1.1e-6,-0.1008152 -0.071349,-0.1825436 -0.1593622,-0.1825422 z m 0.4628748,0.5526972 c -0.088013,-1.4e-6 -0.1593634,0.081726 -0.1593622,0.1825422 -1.2e-6,0.1008152 0.071349,0.1825436 0.1593622,0.1825422 0.088014,1.5e-6 0.1593634,-0.081726 0.1593623,-0.1825422 1.1e-6,-0.1008166 -0.071349,-0.1825438 -0.1593623,-0.1825422 z"
     sodipodi:nodetypes="cssssccccccccccccssssssccccccccssccccccccscccccccccccc" /></svg>
