<?xml version="1.0" encoding="UTF-8" standalone="no"?>
<svg
   width="16"
   height="16"
   version="1.1"
   id="svg1"
   sodipodi:docname="execution.svg"
   inkscape:version="1.3.2 (091e20e, 2023-11-25, custom)"
   xmlns:inkscape="http://www.inkscape.org/namespaces/inkscape"
   xmlns:sodipodi="http://sodipodi.sourceforge.net/DTD/sodipodi-0.dtd"
   xmlns="http://www.w3.org/2000/svg"
   xmlns:svg="http://www.w3.org/2000/svg">
  <defs
     id="defs1" />
  <sodipodi:namedview
     id="namedview1"
     pagecolor="#505050"
     bordercolor="#eeeeee"
     borderopacity="1"
     inkscape:showpageshadow="0"
     inkscape:pageopacity="0"
     inkscape:pagecheckerboard="0"
     inkscape:deskcolor="#505050"
     inkscape:zoom="54.756581"
     inkscape:cx="7.5972603"
     inkscape:cy="11.350234"
     inkscape:window-width="3407"
     inkscape:window-height="1417"
     inkscape:window-x="25"
     inkscape:window-y="-8"
     inkscape:window-maximized="1"
     inkscape:current-layer="svg1" />
  <path
     id="path1"
     style="fill:#e0e0e0;fill-opacity:1;stroke:none;stroke-width:1.03396;stroke-opacity:1"
     d="M 7.0019531 0.65234375 L 6.4199219 2.984375 L 5.7109375 3.2792969 L 3.6503906 2.0429688 L 2.1894531 3.5039062 L 3.4238281 5.5605469 L 3.1328125 6.2734375 L 0.79882812 6.8574219 L 0.79882812 8.9238281 L 3.1289062 9.5058594 L 3.4257812 10.214844 L 2.1894531 12.277344 L 3.6503906 13.738281 L 5.7070312 12.503906 L 6.4199219 12.792969 L 7.0019531 15.128906 L 9.0703125 15.128906 L 9.0703125 15.09375 L 9.6464844 12.785156 L 9.8417969 12.703125 L 9.8417969 9.4804688 C 9.841732 9.0433396 10.099183 8.6881937 10.447266 8.5019531 C 10.59955 8.4204729 10.76831 8.370519 10.941406 8.3613281 C 11.163959 8.3495113 11.393116 8.40455 11.597656 8.5410156 L 13.009766 9.4824219 L 15.253906 8.921875 L 15.253906 6.859375 L 12.929688 6.2792969 L 12.634766 5.5722656 L 13.867188 3.5136719 L 12.410156 2.0566406 L 10.355469 3.2890625 L 9.6464844 3.0019531 L 9.0703125 0.6875 L 9.0703125 0.65234375 L 7.0019531 0.65234375 z M 8.0605469 5.8242188 C 9.1148666 5.8566237 10.0625 6.7122379 10.0625 7.890625 C 10.0625 9.1366866 9.0036711 10.020371 7.8789062 9.953125 C 7.8742063 9.9526749 7.8679772 9.9516519 7.8632812 9.9511719 C 6.8661274 9.8486789 6.0019531 9.0174651 6.0019531 7.890625 C 6.0019531 6.7645404 6.8650202 5.9334789 7.8613281 5.8300781 C 7.8666881 5.8295217 7.8735373 5.828635 7.8789062 5.828125 C 7.9399932 5.824475 7.9999974 5.8223588 8.0605469 5.8242188 z " />
  <path
     fill="#e0e0e0"
     d="m 10.651663,14.48505 a 0.54883988,0.54883988 0 0 0 0.853445,0.456634 l 3.293039,-2.195359 a 0.54883988,0.54883988 0 0 0 0,-0.91327 L 11.505108,9.6376949 A 0.54883988,0.54883988 0 0 0 10.651663,10.09433 Z"
     id="path1-1"
     style="stroke-width:0.54884" />
</svg>
