<?xml version="1.0" encoding="UTF-8" standalone="no"?>
<svg
   width="16"
   height="16"
   version="1.1"
   id="svg1"
   sodipodi:docname="query_expression.svg"
   inkscape:version="1.3.2 (091e20e, 2023-11-25, custom)"
   xmlns:inkscape="http://www.inkscape.org/namespaces/inkscape"
   xmlns:sodipodi="http://sodipodi.sourceforge.net/DTD/sodipodi-0.dtd"
   xmlns="http://www.w3.org/2000/svg"
   xmlns:svg="http://www.w3.org/2000/svg">
  <defs
     id="defs1" />
  <sodipodi:namedview
     id="namedview1"
     pagecolor="#505050"
     bordercolor="#eeeeee"
     borderopacity="1"
     inkscape:showpageshadow="0"
     inkscape:pageopacity="0"
     inkscape:pagecheckerboard="0"
     inkscape:deskcolor="#505050"
     inkscape:zoom="64"
     inkscape:cx="5.984375"
     inkscape:cy="8.2421875"
     inkscape:window-width="3407"
     inkscape:window-height="1417"
     inkscape:window-x="25"
     inkscape:window-y="-8"
     inkscape:window-maximized="1"
     inkscape:current-layer="svg1" />
  <path
     id="path1-0"
     style="fill:#e0e0e0;fill-opacity:1;stroke:none;stroke-width:1.02962"
     d="M 5.421875,0.546875 C 5.1479804,0.54644379 4.885166,0.65466151 4.6914062,0.84765625 L 0.56835938,4.9609375 c -0.40220357,0.4013913 -0.40220357,1.0517337 0,1.453125 L 4.6914062,10.525391 C 4.860843,10.690736 5.0822564,10.79282 5.3183594,10.814453 4.5836009,9.2175943 4.6805978,7.1832208 6.1992188,5.5957031 7.1213377,4.6317496 8.2294899,4.1906359 9.2949219,4.1875 c 1.0654321,-0.00314 2.0781751,0.4157302 2.8750001,1.09375 1.461965,1.243988 2.143226,3.4343473 1.140625,5.546875 h 0.361328 c 0.570025,2.9e-5 1.031942,-0.461014 1.03125,-1.0292969 V 1.5742188 C 14.702735,1.0066984 14.241134,0.54684641 13.671875,0.546875 Z m -1.03125,4.1113281 c 1.3752944,0 1.3752944,2.0566407 0,2.0566407 -1.3752944,0 -1.3752944,-2.0566407 0,-2.0566407 z M 9.2988281,5.1875 C 8.4986886,5.189855 7.6777091,5.4969847 6.921875,6.2871094 6.041631,7.2072883 5.759352,8.2574971 5.8789062,9.2363281 6.0607113,8.9990945 6.2670421,8.7835935 6.4941406,8.59375 6.5433745,7.9581412 6.7710915,7.3329008 7.1953125,6.8339844 7.6285263,6.3244916 8.2798604,5.9672084 9.0722656,5.8984375 9.2623734,5.6462688 9.4799922,5.4181624 9.7207031,5.21875 9.5806907,5.1996101 9.4402892,5.1870845 9.2988281,5.1875 Z m 1.0371099,0.1777344 c 0.136406,0.2591255 0.245758,0.5328346 0.326171,0.8164062 0.333328,0.1639255 0.619801,0.3865299 0.845703,0.6523438 0.483258,0.5686351 0.710938,1.3003355 0.710938,2.0253906 0,0.3037427 -0.04304,0.6087209 -0.125,0.9023438 0.129291,0.2472762 0.234005,0.5077512 0.3125,0.7773432 C 13.333166,8.7717455 12.713495,7.0572511 11.521484,6.0429688 11.167313,5.7416031 10.76299,5.5113762 10.335938,5.3652344 Z M 6.0234375,9.8925781 C 6.1271092,10.22179 6.2754128,10.536225 6.4589844,10.828125 H 7.1503906 C 6.9990896,10.640122 6.874167,10.436045 6.7753906,10.220703 6.5145802,10.138745 6.2625862,10.028784 6.0234375,9.8925781 Z"
     sodipodi:nodetypes="ccccccsssccccccssscsccscccccssccscccccc" />
  <path
     fill="#e0e0e0"
     d="m 12.641903,11.13138 a 3.9462881,4.1253232 0 1 0 -1.11601,1.166641 L 14.93233,15.859 16.048339,14.692359 Z M 9.352277,6.3839578 a 2.3677731,2.4751942 0 0 1 0,4.9503882 2.3677731,2.4751942 0 0 1 0,-4.9503882 z"
     id="path1"
     style="fill:#e0e0e0;fill-opacity:1;stroke-width:0.807;stroke-dasharray:none" />
</svg>
