<?xml version="1.0" encoding="UTF-8" standalone="no"?>
<svg
   width="16"
   height="16"
   version="1.1"
   id="svg2"
   sodipodi:docname="scalable_float.svg"
   inkscape:version="1.3.2 (091e20e, 2023-11-25, custom)"
   xmlns:inkscape="http://www.inkscape.org/namespaces/inkscape"
   xmlns:sodipodi="http://sodipodi.sourceforge.net/DTD/sodipodi-0.dtd"
   xmlns="http://www.w3.org/2000/svg"
   xmlns:svg="http://www.w3.org/2000/svg">
  <defs
     id="defs2" />
  <sodipodi:namedview
     id="namedview2"
     pagecolor="#505050"
     bordercolor="#eeeeee"
     borderopacity="1"
     inkscape:showpageshadow="0"
     inkscape:pageopacity="0"
     inkscape:pagecheckerboard="0"
     inkscape:deskcolor="#505050"
     inkscape:zoom="45.254834"
     inkscape:cx="-4.065864"
     inkscape:cy="6.1540387"
     inkscape:window-width="3407"
     inkscape:window-height="1417"
     inkscape:window-x="25"
     inkscape:window-y="-8"
     inkscape:window-maximized="1"
     inkscape:current-layer="svg2" />
  <g
     fill="none"
     stroke="#e0e0e0"
     stroke-width="2"
     id="g2">
    <path
       id="path1"
       style="color:#000000;fill:#e0e0e0;fill-opacity:0.325;-inkscape-stroke:none;stroke:none"
       d="M 1 1 L 1 1.8671875 C 1.5661756 1.4731384 2.25303 1.2402344 2.9921875 1.2402344 L 3 1.2402344 L 3 1 L 1 1 z M 2.9921875 4.2402344 C 2.7101237 4.2402344 2.4921875 4.4581706 2.4921875 4.7402344 L 2.4921875 5.2402344 L 3 5.2402344 L 3 4.2402344 L 2.9921875 4.2402344 z M 2.4921875 8.2402344 L 2.4921875 10.240234 L 1 10.240234 L 1 15 L 15 15 L 15 13 L 3 13 L 3 8.2402344 L 2.4921875 8.2402344 z " />
    <path
       id="path2"
       style="color:#000000;fill:#e0e0e0;stroke-linecap:round;-inkscape-stroke:none;stroke:none"
       d="M 14 1 A 1 1 0 0 0 13.371094 1.2402344 L 14.492188 1.2402344 L 14.492188 3.2402344 L 14.964844 3.2402344 C 14.986782 2.835054 15 2.4231804 15 2 A 1 1 0 0 0 14 1 z M 14.492188 6.2402344 L 14.492188 6.5273438 C 14.515831 6.4319983 14.54054 6.3370158 14.5625 6.2402344 L 14.492188 6.2402344 z M 11.798828 8.1640625 C 11.440482 8.8910992 11.002975 9.5281747 10.492188 10.080078 L 10.492188 10.240234 L 10.341797 10.240234 C 10.32503 10.257323 10.309886 10.276051 10.292969 10.292969 C 8.5286743 12.057263 5.8333257 13 2 13 A 1 1 0 0 0 1 14 A 1 1 0 0 0 2 15 C 6.1666583 15 9.4713337 13.942729 11.707031 11.707031 C 12.288713 11.125349 12.788618 10.470807 13.212891 9.7480469 C 12.593 9.3794825 12.09613 8.8264434 11.798828 8.1640625 z " />
  </g>
  <path
     fill="#35d4f4"
     d="m 2.992629,1.7411957 a 3,3 0 0 0 -2.99999998,3 v 5 H 1.992629 v -2 h 2 v -2 h -2 v -1 a 1,1 0 0 1 1,-1 h 1 v -2 z m 3,0 v 5 a 3,3 0 0 0 3,3 h 1 v -2 h -1 a 1,1 0 0 1 -1,-1 v -5 z m 6,0 v 5 a 3,3 0 0 0 3,3 h 1 v -2 h -1 a 1,1 0 0 1 -1,-1 v -1 h 2 v -2 h -2 v -2 z"
     id="path1-6"
     style="display:inline" />
</svg>
