<?xml version="1.0" encoding="UTF-8" standalone="no"?>
<!-- Created with Inkscape (http://www.inkscape.org/) -->

<svg
   width="16"
   height="16"
   viewBox="0 0 16 16"
   version="1.1"
   id="svg848"
   inkscape:version="1.2.2 (732a01da63, 2022-12-09)"
   sodipodi:docname="AC_time.svg"
   xml:space="preserve"
   xmlns:inkscape="http://www.inkscape.org/namespaces/inkscape"
   xmlns:sodipodi="http://sodipodi.sourceforge.net/DTD/sodipodi-0.dtd"
   xmlns="http://www.w3.org/2000/svg"
   xmlns:svg="http://www.w3.org/2000/svg"
   xmlns:rdf="http://www.w3.org/1999/02/22-rdf-syntax-ns#"
   xmlns:cc="http://creativecommons.org/ns#"
   xmlns:dc="http://purl.org/dc/elements/1.1/"><title
     id="title5848">AC_time</title><sodipodi:namedview
     id="namedview850"
     pagecolor="#ffffff"
     bordercolor="#000000"
     borderopacity="0.25"
     inkscape:showpageshadow="2"
     inkscape:pageopacity="0.0"
     inkscape:pagecheckerboard="0"
     inkscape:deskcolor="#d1d1d1"
     inkscape:document-units="mm"
     showgrid="false"
     inkscape:zoom="5.6568546"
     inkscape:cx="22.362251"
     inkscape:cy="31.289473"
     inkscape:window-width="1920"
     inkscape:window-height="1009"
     inkscape:window-x="-8"
     inkscape:window-y="-8"
     inkscape:window-maximized="1"
     inkscape:current-layer="layer1" /><defs
     id="defs845" /><g
     inkscape:label="Слой 1"
     inkscape:groupmode="layer"
     id="layer1"><rect
       style="fill:#60e9ff;fill-opacity:1;stroke-width:1.2483;stroke-dashoffset:28.7769;paint-order:markers fill stroke"
       id="rect4770"
       width="16.000002"
       height="5.1888952"
       x="-7.1525574e-07"
       y="5.4055524" /><rect
       style="fill:#ffffff;fill-opacity:1;stroke-width:2.78002;stroke-dashoffset:28.7769;paint-order:markers fill stroke"
       id="rect7497"
       width="16"
       height="2.4045525"
       x="-8.3266727e-16"
       y="6.7977238" /><g
       aria-label="ATK"
       id="text902"
       style="font-size:5.56522px;font-family:'Public Pixel';-inkscape-font-specification:'Public Pixel, Normal';fill:#d63636;stroke-width:0.0788769;stroke-dashoffset:28.7769"><path
         d="M 3.4782617,13.913043 V 12.521738 H 2.7826092 V 11.826085 H 2.0869567 v 0.695653 H 1.3913043 v 1.391305 z M -7.1525574e-7,16 V 12.521738 H 0.69565177 V 11.826085 H 1.3913043 v -0.695652 h 2.0869574 v 0.695652 h 0.6956525 v 0.695653 H 4.8695667 V 16 H 3.4782617 V 14.608695 H 1.3913043 V 16 Z"
         id="path3294" /><path
         d="m 6.2608716,11.826085 v -0.695652 h 4.1739154 v 0.695652 H 9.0434816 V 16 h -1.391305 v -4.173915 z"
         id="path3296" /><path
         d="m 11.130439,16 v -4.869567 h 1.391305 v 2.086957 h 0.695652 v -0.695652 h 0.695653 v -0.695653 h 0.695652 v -0.695652 h 1.391305 v 0.695652 h -0.695652 v 0.695653 h -0.695653 v 0.695652 h -0.695652 v 0.695653 h 0.695652 v 0.695652 h 0.695653 v 0.695653 h 0.695652 V 16 H 14.608701 V 15.304348 H 13.913049 V 14.608695 H 13.217396 V 13.913043 H 12.521744 V 16 Z"
         id="path3298" /></g><g
       aria-label="TIME"
       id="text7703"
       style="font-size:4.26667px;font-family:'Public Pixel';-inkscape-font-specification:'Public Pixel, Normal';fill:#a2a2a2;stroke-width:0.0604723;stroke-dashoffset:28.7769"><path
         d="M 5.364418e-7,0.53333378 V 0 H 3.2000032 V 0.53333378 H 2.1333356 V 3.7333364 H 1.0666681 V 0.53333378 Z"
         id="path8986" /><path
         d="M 4.2666708,3.7333364 V 3.2000027 H 5.3333383 V 0.53333378 H 4.2666708 V 0 H 7.4666734 V 0.53333378 H 6.4000059 V 3.2000027 h 1.0666675 v 0.5333337 z"
         id="path8988" /><path
         d="M 8.0000072,3.7333364 V 0 H 9.0666748 V 0.53333378 H 9.6000085 V 1.0666676 H 10.133342 V 0.53333378 h 0.533334 V 0 h 1.066668 V 3.7333364 H 10.666676 V 1.6000013 H 10.133342 V 2.1333351 H 9.6000085 V 1.6000013 H 9.0666748 v 2.1333351 z"
         id="path8990" /><path
         d="M 12.266677,3.7333364 V 0 h 3.733337 V 0.53333378 H 13.333345 V 1.6000013 h 1.600001 v 0.5333338 h -1.600001 v 1.0666676 h 2.666669 v 0.5333337 z"
         id="path8992" /></g></g><metadata
     id="metadata5846"><rdf:RDF><cc:Work
         rdf:about=""><dc:title>AC_time</dc:title></cc:Work></rdf:RDF></metadata></svg>
