<?xml version="1.0" encoding="UTF-8" standalone="no"?>
<!-- Created with Inkscape (http://www.inkscape.org/) -->

<svg
   width="16"
   height="16"
   viewBox="0 0 16 16"
   version="1.1"
   id="svg848"
   inkscape:version="1.2.2 (732a01da63, 2022-12-09)"
   sodipodi:docname="SC_random_range.svg"
   xml:space="preserve"
   xmlns:inkscape="http://www.inkscape.org/namespaces/inkscape"
   xmlns:sodipodi="http://sodipodi.sourceforge.net/DTD/sodipodi-0.dtd"
   xmlns="http://www.w3.org/2000/svg"
   xmlns:svg="http://www.w3.org/2000/svg"
   xmlns:rdf="http://www.w3.org/1999/02/22-rdf-syntax-ns#"
   xmlns:cc="http://creativecommons.org/ns#"
   xmlns:dc="http://purl.org/dc/elements/1.1/"><title
     id="title5848">SC_random_range</title><sodipodi:namedview
     id="namedview850"
     pagecolor="#ffffff"
     bordercolor="#000000"
     borderopacity="0.25"
     inkscape:showpageshadow="2"
     inkscape:pageopacity="0.0"
     inkscape:pagecheckerboard="0"
     inkscape:deskcolor="#d1d1d1"
     inkscape:document-units="mm"
     showgrid="false"
     inkscape:zoom="16.000001"
     inkscape:cx="6.5624997"
     inkscape:cy="2.3749999"
     inkscape:window-width="1920"
     inkscape:window-height="1009"
     inkscape:window-x="-8"
     inkscape:window-y="-8"
     inkscape:window-maximized="1"
     inkscape:current-layer="layer1" /><defs
     id="defs845" /><g
     inkscape:label="Слой 1"
     inkscape:groupmode="layer"
     id="layer1"><rect
       style="fill:#60e9ff;fill-opacity:1;stroke-width:1.2483;stroke-dashoffset:28.7769;paint-order:markers fill stroke"
       id="rect4770"
       width="16.000002"
       height="5.1888952"
       x="-7.1525574e-07"
       y="5.4055524" /><rect
       style="fill:#ffffff;fill-opacity:1;stroke-width:2.78002;stroke-dashoffset:28.7769;paint-order:markers fill stroke"
       id="rect7497"
       width="16"
       height="2.4045525"
       x="2.6645353e-15"
       y="6.7977238" /><g
       aria-label="RAND"
       id="text907"
       style="font-size:4.12903px;font-family:'Public Pixel';-inkscape-font-specification:'Public Pixel, Normal';fill:#999999;stroke-width:0.156058;stroke-dashoffset:28.7769"
       transform="matrix(0.95675221,0,0,0.95675221,0.34598615,0)"><path
         d="M 0,3.6129014 V 0 H 3.0967727 V 0.51612878 H 3.6129014 V 1.5483863 H 3.0967727 V 2.0645151 H 2.5806439 V 2.5806439 H 3.0967727 V 3.0967727 H 3.6129014 V 3.6129014 H 2.5806439 V 3.0967727 H 2.0645151 V 2.5806439 H 1.5483863 V 2.0645151 H 1.0322576 V 3.6129014 Z M 1.0322576,1.5483863 H 2.5806439 V 0.51612878 H 1.0322576 Z"
         id="path1109" /><path
         d="M 6.7096741,2.0645151 V 1.0322576 H 6.1935453 V 0.51612878 H 5.6774166 V 1.0322576 H 5.1612878 V 2.0645151 Z M 4.1290302,3.6129014 V 1.0322576 H 4.645159 V 0.51612878 H 5.1612878 V 0 H 6.7096741 V 0.51612878 H 7.2258029 V 1.0322576 H 7.7419317 V 3.6129014 H 6.7096741 V 2.5806439 H 5.1612878 v 1.0322575 z"
         id="path1111" /><path
         d="M 8.2580605,3.6129014 V 0 H 9.290318 V 0.51612878 H 9.8064468 V 1.0322576 h 0.5161292 v 0.5161287 h 0.516128 V 0 h 1.032258 V 3.6129014 H 10.838704 V 2.5806439 H 10.322576 V 2.0645151 H 9.8064468 V 1.5483863 H 9.290318 v 2.0645151 z"
         id="path1113" /><path
         d="M 14.451606,3.0967727 V 2.5806439 h 0.516129 V 1.0322576 H 14.451606 V 0.51612878 H 13.419348 V 3.0967727 Z m 0.516129,0 V 3.6129014 H 12.387091 V 0 h 2.580644 v 0.51612878 h 0.516128 V 1.0322576 h 0.516129 v 1.5483863 h -0.516129 v 0.5161288 z"
         id="path1115" /></g></g><metadata
     id="metadata5846"><rdf:RDF><cc:Work
         rdf:about=""><dc:title>SC_random_range</dc:title></cc:Work></rdf:RDF></metadata></svg>
