<?xml version="1.0" encoding="UTF-8" standalone="no"?>
<!-- Created with Inkscape (http://www.inkscape.org/) -->

<svg
   width="16"
   height="16"
   viewBox="0 0 16 16"
   version="1.1"
   id="svg848"
   inkscape:version="1.2.2 (732a01da63, 2022-12-09)"
   sodipodi:docname="SC_reset.svg"
   xml:space="preserve"
   xmlns:inkscape="http://www.inkscape.org/namespaces/inkscape"
   xmlns:sodipodi="http://sodipodi.sourceforge.net/DTD/sodipodi-0.dtd"
   xmlns="http://www.w3.org/2000/svg"
   xmlns:svg="http://www.w3.org/2000/svg"
   xmlns:rdf="http://www.w3.org/1999/02/22-rdf-syntax-ns#"
   xmlns:cc="http://creativecommons.org/ns#"
   xmlns:dc="http://purl.org/dc/elements/1.1/"><title
     id="title5848">SC_reset</title><sodipodi:namedview
     id="namedview850"
     pagecolor="#ffffff"
     bordercolor="#000000"
     borderopacity="0.25"
     inkscape:showpageshadow="2"
     inkscape:pageopacity="0.0"
     inkscape:pagecheckerboard="0"
     inkscape:deskcolor="#d1d1d1"
     inkscape:document-units="mm"
     showgrid="false"
     inkscape:zoom="32.000001"
     inkscape:cx="5.6562498"
     inkscape:cy="7.3749997"
     inkscape:window-width="1920"
     inkscape:window-height="1009"
     inkscape:window-x="-8"
     inkscape:window-y="-8"
     inkscape:window-maximized="1"
     inkscape:current-layer="layer1" /><defs
     id="defs845" /><g
     inkscape:label="Слой 1"
     inkscape:groupmode="layer"
     id="layer1"><rect
       style="fill:#60e9ff;fill-opacity:1;stroke-width:1.2483;stroke-dashoffset:28.7769;paint-order:markers fill stroke"
       id="rect4770"
       width="16.000002"
       height="5.1888952"
       x="-7.1525574e-07"
       y="5.4055524" /><rect
       style="fill:#ffffff;fill-opacity:1;stroke-width:2.78002;stroke-dashoffset:28.7769;paint-order:markers fill stroke"
       id="rect7497"
       width="16"
       height="2.4045525"
       x="2.6645353e-15"
       y="6.7977238" /><g
       aria-label="RES"
       id="text3837"
       style="font-size:5.56522px;font-family:'Public Pixel';-inkscape-font-specification:'Public Pixel, Normal';fill:#a2a2a2;stroke-width:0.210339;stroke-dashoffset:28.7769"><path
         d="M 0,4.869565 V -2.3841858e-6 H 4.1739149 V 0.6956501 h 0.6956525 v 1.391305 H 4.1739149 V 2.7826076 H 3.4782624 V 3.47826 H 4.1739149 V 4.1739125 H 4.8695674 V 4.869565 H 3.4782624 V 4.1739125 H 2.7826099 V 3.47826 H 2.0869575 V 2.7826076 H 1.391305 V 4.869565 Z M 1.391305,2.0869551 H 3.4782624 V 0.6956501 H 1.391305 Z"
         id="path3891" /><path
         d="M 5.5652199,4.869565 V -2.3841858e-6 H 10.434787 V 0.6956501 H 6.9565248 v 1.391305 H 9.0434823 V 2.7826076 H 6.9565248 V 4.1739125 H 10.434787 V 4.869565 Z"
         id="path3893" /><path
         d="M 11.826092,4.1739125 H 11.13044 V 3.47826 h 1.391305 v 0.6956525 h 2.086957 V 2.7826076 h -2.78261 V 2.0869551 H 11.13044 v -1.391305 h 0.695652 V -2.3841858e-6 h 3.478263 V 0.6956501 h 0.695652 V 1.3913026 H 14.608702 V 0.6956501 h -2.086957 v 1.391305 h 2.78261 v 0.6956525 h 0.695652 V 4.1739125 H 15.304355 V 4.869565 h -3.478263 z"
         id="path3895" /></g></g><metadata
     id="metadata5846"><rdf:RDF><cc:Work
         rdf:about=""><dc:title>SC_reset</dc:title></cc:Work></rdf:RDF></metadata></svg>
