<?xml version="1.0" encoding="UTF-8" standalone="no"?><!DOCTYPE svg PUBLIC "-//W3C//DTD SVG 1.1//EN" "http://www.w3.org/Graphics/SVG/1.1/DTD/svg11.dtd"><svg width="100%" height="100%" viewBox="0 0 67 67" version="1.1" xmlns="http://www.w3.org/2000/svg" xmlns:xlink="http://www.w3.org/1999/xlink" xml:space="preserve" xmlns:serif="http://www.serif.com/" style="fill-rule:evenodd;clip-rule:evenodd;stroke-linecap:round;stroke-linejoin:round;stroke-miterlimit:1.5;"><g><path d="M24.63,48.103c0.662,0.033 17.558,-0.026 17.657,0.031c0.36,0.205 0.273,0.536 0.273,0.662c0,1.262 0.016,1.312 -0.071,1.415c-0.194,0.232 -0.227,0.193 -0.533,0.193c-5.861,-0.01 -17.401,0.026 -17.489,-0.024c-0.349,-0.199 -0.274,-0.472 -0.274,-0.871c-0,-0.968 -0.091,-1.342 0.436,-1.405Z" style="fill:url(#_Linear1);"/><path d="M48.018,45.942c0.001,-0.043 0.011,-0.45 0.076,-0.535c0.278,-0.359 0.57,-0.212 1.665,-0.235c0.145,-0.003 0.111,-0.128 0.111,-0.908c0,-1.721 -0.041,-1.769 0.218,-2.022c0.06,-0.058 0.073,-0.051 2.902,-0.051c0.998,-0 1.094,-0.065 1.277,0.302c0.041,0.083 0.04,0.086 0.04,3.575c0,1.261 0.054,1.328 -0.279,1.58c-0.082,0.062 -5.621,0.029 -5.654,0.018c-0.434,-0.143 -0.355,-0.598 -0.355,-1.724Z" style="fill:url(#_Linear2);"/><path d="M18.316,48.586c-0.01,1.382 0.06,1.703 -0.27,1.81c-0.012,0.004 -5.783,0.033 -5.871,-0.016c-0.372,-0.207 -0.257,-0.427 -0.27,-1.626c-0.004,-0.324 -0.043,-0.356 0.191,-0.575c0.083,-0.077 0.1,-0.067 2.926,-0.067c3.006,0 3.007,-0.003 3.058,0.022c0.245,0.122 0.235,0.449 0.235,0.453Z" style="fill:url(#_Linear3);"/><path d="M53.996,48.103c0.528,0.063 0.436,0.436 0.436,1.405c-0,0.398 0.075,0.672 -0.273,0.871c-0.07,0.04 -5.793,0.04 -5.863,0c-0.331,-0.189 -0.273,-0.273 -0.273,-1.626c0,-0.128 -0.076,-0.42 0.273,-0.62c0.1,-0.057 5.029,0.003 5.701,-0.031Z" style="fill:url(#_Linear4);"/><path d="M37.803,45.166c0.191,0.007 0.191,0.006 2.391,0.006c1.362,0 1.444,-0.055 1.613,0.257c0.071,0.131 0.045,0.141 0.039,1.856c-0.001,0.215 -0.257,0.364 -0.308,0.381c-0.12,0.039 -3.282,0.015 -3.568,0.013c-0.657,-0.005 -0.559,-0.331 -0.559,-1.192c0,-0.951 -0.084,-1.2 0.392,-1.322Z" style="fill:url(#_Linear5);"/><path d="M31.258,45.166c0.476,0.122 0.392,0.37 0.392,1.322c-0,0.861 0.098,1.187 -0.559,1.192c-0.285,0.002 -3.448,0.025 -3.568,-0.013c-0.051,-0.016 -0.307,-0.166 -0.308,-0.381c-0.007,-1.75 -0.015,-1.756 0.053,-1.891c0.111,-0.222 0.307,-0.223 0.339,-0.223c0.696,-0.002 3.267,0.008 3.65,-0.005Z" style="fill:url(#_Linear6);"/><path d="M12.296,45.166c0.085,0.003 0.081,0.006 0.167,0.006c3.532,0.006 3.558,-0.033 3.681,0.07c0.265,0.222 0.195,0.499 0.195,0.784c0,1.352 0.059,1.439 -0.273,1.625c-0.082,0.046 -3.81,0.046 -3.891,0c-0.346,-0.194 -0.27,-0.42 -0.27,-1.122c-0,-1.002 -0.085,-1.242 0.391,-1.363Z" style="fill:url(#_Linear7);"/><path d="M21.42,47.242c-0.022,0.52 -0.245,0.437 -1.573,0.437c-2.514,0 -2.537,0.015 -2.649,-0.094c-0.216,-0.209 -0.178,-0.248 -0.178,-1.433c-0,-0.49 -0.075,-0.756 0.274,-0.954c0.091,-0.051 3.827,-0.023 3.857,-0.016c0.113,0.029 0.222,0.165 0.237,0.184c0.041,0.051 0.028,0.06 0.033,1.877Z" style="fill:url(#_Linear8);"/><path d="M46.927,45.649c-0.012,1.61 0.065,1.911 -0.271,2.018c-0.035,0.011 -3.756,0.04 -3.856,-0.016c-0.333,-0.187 -0.274,-0.301 -0.274,-1.583c0,-0.409 -0.072,-0.673 0.274,-0.87c0.1,-0.057 3.296,-0.011 3.729,-0.026c0.392,-0.014 0.394,0.439 0.398,0.478Z" style="fill:url(#_Linear9);"/><path d="M22.133,45.649c0.004,-0.039 0.007,-0.491 0.398,-0.478c0.433,0.015 3.629,-0.031 3.729,0.026c0.346,0.197 0.274,0.462 0.274,0.87c0,1.282 0.059,1.396 -0.274,1.583c-0.1,0.056 -3.82,0.027 -3.856,0.016c-0.336,-0.107 -0.259,-0.408 -0.271,-2.018Z" style="fill:url(#_Linear10);"/><path d="M32.328,47.2c0.015,-0.693 -0.025,-1.653 0.032,-1.756c0.157,-0.281 0.329,-0.275 0.366,-0.273c0.457,0.016 3.69,-0.033 3.766,0.029c0.259,0.211 0.243,0.241 0.239,0.575c-0.02,1.457 0.113,1.526 -0.221,1.853c-0.06,0.059 -0.074,0.052 -3.363,0.052c-0.35,-0 -0.757,0.105 -0.818,-0.479Z" style="fill:url(#_Linear11);"/><path d="M42.984,48.543c0.004,-0.038 0.032,-0.275 0.263,-0.398c0.073,-0.039 0.077,-0.034 3.073,-0.034c0.667,0 1.108,-0.108 1.106,0.516c-0.004,1.448 0.053,1.501 -0.194,1.708c-0.095,0.08 -0.111,0.068 -2.632,0.068c-1.288,0 -1.315,0.029 -1.476,-0.132c-0.255,-0.255 -0.083,-0.717 -0.139,-1.728Z" style="fill:url(#_Linear12);"/><path d="M19.763,48.103c0.269,0.018 3.376,0.007 3.608,0.005c0.205,-0.003 0.399,0.253 0.398,0.394c-0.002,1.59 0.012,1.604 -0.076,1.709c-0.182,0.217 -0.208,0.193 -0.491,0.192c-3.508,-0.01 -3.535,0.054 -3.681,-0.069c-0.262,-0.22 -0.195,-0.469 -0.195,-0.826c0,-0.972 -0.092,-1.343 0.436,-1.405Z" style="fill:url(#_Linear13);"/><path d="M19.218,44.411c-2.805,0 -2.819,0.01 -2.93,-0.073c-0.182,-0.135 -0.148,-0.178 -0.148,-1.459c0,-0.462 -0.078,-0.727 0.477,-0.73c0.225,-0.001 2.69,-0.015 2.813,0.002c0.1,0.014 0.262,0.196 0.264,0.264c0.013,0.404 0.007,1.546 0.006,1.68c-0.001,0.148 -0.208,0.303 -0.27,0.308c-0.017,0.001 -0.016,0.001 -0.212,0.007Z" style="fill:url(#_Linear14);"/><path d="M41.956,44.411c-0.243,-0.017 -0.245,-0.005 -0.283,-0.034c-0.253,-0.195 -0.193,-0.296 -0.193,-0.951c0,-1.006 -0.05,-1.057 0.193,-1.245c0.064,-0.049 3.104,-0.049 3.167,0c0.312,0.241 0.194,0.309 0.194,0.7c-0,1.281 0.034,1.325 -0.147,1.459c-0.112,0.083 -0.126,0.073 -2.93,0.072Z" style="fill:url(#_Linear15);"/><path d="M31.887,44.411c-2.805,0 -2.819,0.01 -2.93,-0.072c-0.181,-0.134 -0.147,-0.178 -0.147,-1.459c-0,-0.391 -0.118,-0.459 0.194,-0.7c0.063,-0.049 3.104,-0.049 3.167,-0c0.243,0.188 0.193,0.239 0.193,1.245c0,0.657 0.06,0.757 -0.193,0.951c-0.038,0.029 -0.04,0.017 -0.283,0.034Z" style="fill:url(#_Linear16);"/><path d="M12.38,44.411c-0.261,-0.009 -0.285,0.009 -0.449,-0.199c-0.043,-0.055 -0.043,-1.812 -0,-1.868c0.188,-0.24 0.226,-0.194 0.533,-0.195c2.79,-0.004 2.791,0.023 2.8,0.03c0.26,0.201 0.195,0.354 0.195,0.7c0,1.28 0.033,1.323 -0.149,1.459c-0.111,0.083 -0.126,0.073 -2.93,0.073Z" style="fill:url(#_Linear17);"/><path d="M25.049,44.411c-0.197,-0.007 -0.195,-0.006 -0.212,-0.007c-0.065,-0.004 -0.271,-0.163 -0.271,-0.308c0.008,-1.547 0.002,-1.546 0.006,-1.68c0.002,-0.068 0.165,-0.25 0.265,-0.264c0.131,-0.019 2.588,-0.004 2.813,-0.002c0.534,0.003 0.478,0.233 0.478,0.688c0,1.322 0.033,1.365 -0.149,1.5c-0.111,0.083 -0.126,0.073 -2.93,0.073Z" style="fill:url(#_Linear18);"/><path d="M33.523,44.411c-0.244,-0.018 -0.245,-0.006 -0.283,-0.035c-0.296,-0.225 -0.196,-0.288 -0.196,-0.657c-0,-1.321 -0.033,-1.365 0.15,-1.501c0.106,-0.079 0.119,-0.068 2.385,-0.068c0.705,-0 0.998,-0.114 0.987,0.478c-0.021,1.2 0.057,1.587 -0.112,1.711c-0.112,0.082 -0.126,0.072 -2.931,0.072Z" style="fill:url(#_Linear19);"/><path d="M40.32,44.411c-2.805,0 -2.819,0.01 -2.931,-0.072c-0.168,-0.124 -0.091,-0.508 -0.112,-1.711c-0.01,-0.593 0.285,-0.478 0.987,-0.478c2.266,0 2.279,-0.011 2.385,0.068c0.182,0.136 0.15,0.179 0.15,1.501c-0,0.37 0.099,0.432 -0.196,0.657c-0.038,0.029 -0.039,0.017 -0.283,0.035Z" style="fill:url(#_Linear20);"/><path d="M49.234,42.503c-0.009,1.718 0.046,1.802 -0.187,1.891c-0.033,0.012 -3.054,0.046 -3.137,-0.017c-0.245,-0.187 -0.196,-0.238 -0.196,-1.245c-0,-0.659 -0.056,-0.757 0.196,-0.951c0.064,-0.05 3.105,-0.049 3.167,-0.001c0.151,0.117 0.146,0.131 0.157,0.323Z" style="fill:url(#_Linear21);"/><path d="M20.854,44.411c-0.261,-0.019 -0.289,0.008 -0.447,-0.2c-0.053,-0.07 -0.05,-1.8 -0,-1.866c0.2,-0.262 0.367,-0.195 0.741,-0.195c2.541,-0 2.549,-0.004 2.59,0.029c0.164,0.133 0.159,0.411 0.158,0.449c-0.027,1.459 0.057,1.492 -0.119,1.709c-0.069,0.085 -0.093,0.074 -2.924,0.074Z" style="fill:url(#_Linear22);"/><path d="M30.316,39.553c0.211,-0.183 0.238,-0.127 0.69,-0.127c1.984,0 1.993,-0.008 2.064,0.045c0.051,0.038 0.045,0.039 0.094,0.082c0.123,0.15 0.072,0.17 0.079,1.481c0.003,0.449 -0.068,0.519 -0.517,0.518c-2.221,-0.001 -2.234,0.015 -2.344,-0.065c-0.209,-0.152 -0.135,-0.285 -0.145,-1.586c-0.001,-0.189 -0.039,-0.204 0.079,-0.348Z" style="fill:url(#_Linear23);"/><path d="M48.563,39.775c0.018,-0.143 0.004,-0.152 0.104,-0.252c0.157,-0.157 0.215,-0.077 2.602,-0.1c0.166,-0.002 0.315,0.205 0.314,0.311c-0.005,1.553 0.007,1.564 -0.072,1.673c-0.131,0.18 -0.173,0.146 -1.376,0.146c-1.327,0 -1.37,0.033 -1.502,-0.146c-0.141,-0.192 -0.027,-0.819 -0.071,-1.631Z" style="fill:url(#_Linear24);"/><path d="M14.918,39.775c-0.046,0.593 0.073,1.434 -0.071,1.631c-0.132,0.18 -0.175,0.146 -1.502,0.146c-1.203,0 -1.245,0.033 -1.376,-0.146c-0.112,-0.153 -0.054,-0.174 -0.067,-1.674c-0.001,-0.142 0.169,-0.311 0.31,-0.31c2.384,0.023 2.445,-0.057 2.602,0.1c0.102,0.102 0.087,0.112 0.104,0.252Z" style="fill:url(#_Linear25);"/><path d="M22.174,39.553c0.062,0.113 0.085,1.81 -0.019,1.9c-0.137,0.119 -0.157,0.098 -1.721,0.098c-0.93,0 -0.989,0.038 -1.124,-0.146c-0.079,-0.108 -0.085,-0.116 -0.072,-1.672c0.001,-0.107 0.149,-0.312 0.314,-0.31c0.291,0.003 0.289,0.003 1.931,0.003c0.462,-0 0.488,-0.049 0.691,0.127Z" style="fill:url(#_Linear26);"/><path d="M22.978,39.56c0.062,-0.06 0.057,-0.144 0.267,-0.136c0.27,0.011 2.381,-0.011 2.436,0.011c0.224,0.087 0.223,0.347 0.223,0.382c-0.002,1.48 0.029,1.508 -0.1,1.636c-0.118,0.118 -0.142,0.099 -1.846,0.099c-0.742,0 -1.033,0.108 -1.029,-0.435c0.009,-1.283 -0.033,-1.289 0.048,-1.558Z" style="fill:url(#_Linear27);"/><path d="M40.503,39.56c0.081,0.271 0.039,0.277 0.048,1.558c0.004,0.543 -0.287,0.435 -1.029,0.435c-1.703,-0 -1.727,0.019 -1.846,-0.099c-0.129,-0.129 -0.097,-0.157 -0.1,-1.636c-0,-0.035 -0,-0.295 0.223,-0.382c0.055,-0.021 2.166,-0 2.436,-0.011c0.21,-0.008 0.205,0.076 0.267,0.136Z" style="fill:url(#_Linear28);"/><path d="M41.263,39.818c0.003,-0.033 -0.009,-0.105 0.047,-0.258c0.074,-0.203 0.269,-0.114 2.618,-0.137c0.165,-0.002 0.313,0.204 0.314,0.31c0.001,0.124 0.01,1.11 -0.006,1.554c-0.002,0.057 -0.156,0.269 -0.309,0.27c-1.197,0.011 -1.194,-0.006 -2.392,-0.005c-0.332,0 -0.263,-0.286 -0.272,-1.736Z" style="fill:url(#_Linear29);"/><path d="M33.922,39.859c0.018,-0.213 -0.017,-0.241 0.153,-0.369c0.102,-0.077 0.113,-0.064 1.84,-0.064c0.693,0 0.759,-0.058 0.952,0.192c0.048,0.063 0.048,1.678 -0,1.741c-0.192,0.249 -0.288,0.194 -0.406,0.193c-2.239,-0.005 -2.258,0.03 -2.385,-0.066c-0.197,-0.148 -0.139,-0.197 -0.153,-1.627Z" style="fill:url(#_Linear30);"/><path d="M29.559,39.859c-0.014,1.43 0.044,1.478 -0.153,1.627c-0.128,0.096 -0.146,0.062 -2.385,0.066c-0.119,0 -0.214,0.055 -0.406,-0.193c-0.048,-0.062 -0.049,-1.679 -0,-1.741c0.193,-0.25 0.259,-0.192 0.952,-0.192c1.727,0 1.739,-0.012 1.84,0.064c0.17,0.128 0.134,0.156 0.153,0.369Z" style="fill:url(#_Linear31);"/><path d="M47.892,39.859c-0.014,1.43 0.045,1.479 -0.153,1.627c-0.111,0.083 -0.125,0.065 -2.176,0.066c-0.349,0 -0.404,0.081 -0.616,-0.193c-0.049,-0.063 -0.049,-1.678 -0,-1.741c0.193,-0.25 0.261,-0.192 0.952,-0.192c1.727,-0 1.738,-0.012 1.84,0.064c0.17,0.128 0.135,0.156 0.153,0.369Z" style="fill:url(#_Linear32);"/><path d="M15.589,41.118c0.012,-0.866 -0.011,-1.393 0.018,-1.47c0.089,-0.235 0.306,-0.225 0.338,-0.223c0.362,0.017 2.349,-0.031 2.423,0.028c0.274,0.215 0.195,0.268 0.195,0.617c0,1.214 0.024,1.258 -0.102,1.384c-0.119,0.119 -0.143,0.1 -1.845,0.1c-0.781,0 -0.983,0.091 -1.028,-0.435Z" style="fill:url(#_Linear33);"/><path d="M18.148,37.343c0.056,-0.396 0.207,-0.307 0.944,-0.307c1.303,0 1.507,-0.066 1.483,0.307c-0.025,0.39 0.061,1.369 -0.069,1.498c-0.116,0.115 -0.143,0.089 -2.044,0.071c-0.379,-0.004 -0.305,-0.188 -0.314,-1.569Z" style="fill:url(#_Linear34);"/><path d="M48.521,37.343c-0.009,1.381 0.065,1.565 -0.314,1.569c-1.901,0.018 -1.928,0.044 -2.044,-0.071c-0.13,-0.129 -0.044,-1.108 -0.069,-1.498c-0.024,-0.373 0.183,-0.307 1.483,-0.307c0.737,0 0.888,-0.088 0.944,0.307Z" style="fill:url(#_Linear35);"/><path d="M52.339,37.343c0.007,-0.052 -0.015,-0.055 0.059,-0.213c0.055,-0.117 0.095,-0.094 1.389,-0.094c0.768,-0 0.98,-0.095 0.978,0.391c-0.005,1.13 0.066,1.465 -0.221,1.482c-0.089,0.005 -1.936,0.005 -2.019,-0c-0.229,-0.015 -0.178,-0.321 -0.186,-1.565Z" style="fill:url(#_Linear36);"/><path d="M14.331,37.343c-0.008,1.244 0.043,1.55 -0.186,1.565c-0.082,0.005 -1.93,0.005 -2.019,0c-0.286,-0.017 -0.216,-0.352 -0.221,-1.482c-0.002,-0.485 0.21,-0.391 0.978,-0.391c1.293,0 1.334,-0.023 1.389,0.094c0.074,0.158 0.051,0.161 0.059,0.213Z" style="fill:url(#_Linear37);"/><path d="M42.312,37.384c-0.013,1.335 0.071,1.523 -0.314,1.527c-1.901,0.02 -1.928,0.044 -2.044,-0.071c-0.084,-0.083 -0.07,-0.152 -0.069,-1.414c0,-0.486 0.212,-0.391 0.98,-0.391c1.222,-0 1.227,-0.009 1.31,0.036c0.157,0.085 0.127,0.211 0.137,0.313Z" style="fill:url(#_Linear38);"/><path d="M24.357,37.384c0.01,-0.102 -0.02,-0.228 0.137,-0.313c0.083,-0.045 0.089,-0.036 1.31,-0.036c0.768,0 0.98,-0.095 0.98,0.391c0,1.263 0.014,1.331 -0.069,1.414c-0.116,0.115 -0.142,0.091 -2.044,0.071c-0.385,-0.004 -0.301,-0.191 -0.314,-1.527Z" style="fill:url(#_Linear39);"/><path d="M35.951,38.883c-0.118,0.038 -2.003,0.063 -2.144,-0.013c-0.114,-0.061 -0.189,-0.102 -0.13,-1.615c0.01,-0.271 0.268,-0.221 1.524,-0.221c0.487,0 0.894,-0.075 0.897,0.264c0.014,1.38 0.001,1.406 -0.054,1.514c-0.004,0.008 -0.014,0.027 -0.093,0.07Z" style="fill:url(#_Linear40);"/><path d="M30.718,38.883c-0.08,-0.043 -0.089,-0.062 -0.093,-0.07c-0.055,-0.108 -0.068,-0.134 -0.054,-1.514c0.003,-0.339 0.411,-0.264 0.897,-0.264c1.256,0 1.514,-0.051 1.524,0.221c0.058,1.513 -0.016,1.553 -0.13,1.615c-0.141,0.076 -2.026,0.051 -2.144,0.013Z" style="fill:url(#_Linear41);"/><path d="M21.252,38.6c0.022,-1.126 -0.102,-1.567 0.272,-1.567c2.007,0.005 2.045,-0.016 2.104,0.095c0.059,0.11 0.092,0.173 0.05,1.558c-0.009,0.281 -0.403,0.225 -1.273,0.225c-0.953,-0 -1.101,0.068 -1.154,-0.311Z" style="fill:url(#_Linear42);"/><path d="M45.417,38.6c-0.053,0.379 -0.201,0.311 -1.154,0.311c-0.869,0 -1.264,0.056 -1.273,-0.225c-0.042,-1.385 -0.009,-1.448 0.05,-1.558c0.059,-0.111 0.097,-0.09 2.104,-0.095c0.374,-0.001 0.25,0.44 0.272,1.567Z" style="fill:url(#_Linear43);"/><path d="M27.493,38.763c-0.026,-0.081 -0.028,-0.079 -0.029,-0.204c-0.005,-1.37 -0.012,-1.411 0.148,-1.501c0.134,-0.074 1.889,-0.029 2.053,-0.025c0.119,0.003 0.177,0.114 0.185,0.13c0.055,0.105 0.045,0.11 0.038,1.48c-0.002,0.348 -0.485,0.268 -0.645,0.268c-1.603,0 -1.655,0.028 -1.751,-0.149Z" style="fill:url(#_Linear44);"/><path d="M39.176,38.763c-0.096,0.177 -0.148,0.149 -1.751,0.149c-0.16,-0 -0.643,0.079 -0.645,-0.268c-0.007,-1.369 -0.017,-1.375 0.038,-1.48c0.008,-0.016 0.067,-0.127 0.185,-0.13c0.164,-0.004 1.919,-0.05 2.053,0.025c0.16,0.089 0.153,0.13 0.148,1.501c-0,0.125 -0.002,0.123 -0.028,0.204Z" style="fill:url(#_Linear45);"/><path d="M17.435,37.343c-0.009,1.429 0.038,1.499 -0.145,1.556c-0.005,0.002 -1.989,0.058 -2.152,-0.028c-0.108,-0.057 -0.11,-0.087 -0.095,-1.529c0.003,-0.329 0.111,-0.309 0.441,-0.307c1.705,0.006 1.933,-0.05 1.946,0.136c0.001,0.014 0,0.013 0.005,0.171Z" style="fill:url(#_Linear46);"/><path d="M49.234,37.343c0.005,-0.159 0.004,-0.158 0.005,-0.171c0.012,-0.186 0.241,-0.13 1.946,-0.136c0.33,-0.001 0.437,-0.022 0.441,0.307c0.015,1.441 0.013,1.472 -0.095,1.529c-0.163,0.085 -2.146,0.029 -2.152,0.027c-0.183,-0.058 -0.137,-0.127 -0.145,-1.556Z" style="fill:url(#_Linear47);"/></g><path id="Layer4" d="M43.462,12.51c0.324,0.012 0.153,0.003 0.362,0.014l0.32,0.009c0.441,0.006 0.057,0.001 0.579,0l0.211,0c1.668,0.106 1.814,0.609 2.318,1.212c0.014,0.062 0.013,0.059 0.055,0.107c0.223,0.471 0.297,1.095 0.366,1.21l0.054,0.104c0.164,0.195 0.537,0.43 0.86,0.931c0.124,0.192 0.398,0.438 0.65,1.077c0.01,0.026 0.078,0.197 0.147,0.319c0.001,0.001 0.265,0.705 0.314,1.256c0.001,0.009 0.002,0.007 0.023,0.103c0.002,0.105 0.011,0.29 0.012,0.316l0,0.527c-0.001,0.017 -0.002,0.012 -0.013,0.209c-0.084,0.427 -0.104,0.414 -0.188,0.846c-0.016,0.082 -0.023,0.076 -0.017,0.156c0.013,0.146 0.735,3.622 0.804,4.206c0.025,0.208 0.084,0.196 0.463,2.579c0.01,0.063 -0.006,0.063 0.075,0.792c0.196,1.78 -0.185,3.47 -0.795,4.332c-0.345,0.488 -0.561,1.041 -1.982,1.701c-0.108,0.05 -0.39,0.181 -1.465,0.282l-0.158,-0.029l-0.052,0.029c-0.364,-0.05 -0.374,0.017 -1.16,-0.194c-0.076,-0.014 -0.072,-0.018 -0.147,-0.031c-0.189,-0.082 -1.441,-0.625 -1.991,-1.632c-0.05,-0.079 -0.045,-0.075 -0.105,-0.152c-0.013,-0.025 -0.141,-0.274 -0.178,-0.307c-0.151,-0.138 -0.81,-2 -0.84,-2.054l0,-0.053c-0.026,-0.096 -0.019,-0.097 -0.08,-0.174c0.007,-0.079 -0.001,-0.072 -0.018,-0.143l-0.055,-0.105c-0.156,-0.6 -0.589,-1.704 -0.632,-1.895c-0.025,-0.148 -0.087,-0.071 -0.212,0.002c-0.674,0.38 -1.258,0.426 -1.371,0.449c-0.082,0.017 -0.099,0.026 -0.102,0.026c-0.213,0.056 -0.112,0.03 -0.264,0.045c-0.545,-0.026 -0.237,0.001 -0.797,-0.048c-0.228,-0.02 -0.119,-0.01 -0.314,-0.025l-0.154,-0.023c-0.171,-0.088 -1.169,-0.249 -1.806,-1.093c-0.015,-0.021 -0.092,-0.122 -0.253,-0.203l-0.15,-0.01l-0.103,0.001l-0.213,-0.001l-0.051,-0.001c-0.238,-0.011 -0.234,-0.009 -0.476,0.001l-0.629,-0.001c-0.025,-0.002 -0.023,-0.001 -0.316,-0.005c-0.212,-0.001 -0.207,-0.003 -0.422,0.002c-0.297,0.002 -0.296,0.002 -0.316,0.003l-0.05,0l-0.213,-0.001l-0.051,-0.001c-0.189,-0.016 -0.184,-0.006 -0.369,0l-0.157,0.001c-0.136,-0.009 -0.132,-0.013 -0.266,0.001l-0.102,0.001c-0.027,-0.002 -0.025,-0.002 -0.317,-0.004l-0.212,0.003l-0.313,0.001c-0.228,-0.002 -0.223,-0.002 -0.264,-0.001c-0.166,-0.006 -0.164,-0.022 -0.318,0.026c-0.078,0.046 -0.103,0.006 -0.174,0.102c-0.181,0.242 -0.562,0.551 -0.615,0.595c-0.352,0.286 -1.356,0.747 -2.209,0.673c-0.03,-0.003 -0.03,0.007 -0.371,-0.025c-0.31,-0.03 -0.005,0.002 -0.318,-0.036l-0.156,-0.029c-0.282,-0.165 -0.312,-0.077 -0.692,-0.246c-0.207,-0.091 -0.478,-0.203 -0.519,-0.221c-0.056,-0.024 -0.057,-0.091 -0.088,-0.037c-0.014,0.025 0.002,0.059 -0.011,0.083c-0.035,0.052 -0.031,0.053 -0.281,0.729c-0.23,0.622 -0.224,0.678 -0.218,0.739c0.005,0.045 -0.064,0.023 -0.192,0.528c-0.072,0.282 -0.743,1.972 -0.811,2.143c-0.013,0.034 -0.503,0.917 -0.838,1.26c-1.172,1.196 -2.044,1.198 -2.505,1.292c-0.915,0.187 -2.336,-0.242 -2.691,-0.528c-0.022,-0.018 -0.293,-0.091 -0.945,-0.794c-0.296,-0.318 -0.253,-0.345 -0.503,-0.703c-0.068,-0.098 -0.281,-0.606 -0.304,-0.66c-0.218,-0.521 -0.183,-0.692 -0.286,-0.959l-0.028,-0.155c-0.023,-0.529 -0.106,-0.519 -0.103,-1.053c0.001,-0.142 -0.02,-1.306 0.06,-1.686c0.094,-0.444 0.006,-0.454 0.129,-0.888c0.012,-0.041 -0.026,-0.046 0.066,-0.533c0.019,-0.099 -0.004,-0.197 0.067,-0.526c0.061,-0.281 0.039,-0.28 0.673,-3.526c0.217,-1.112 0.242,-1.099 0.366,-1.635c0.015,-0.066 -0.009,-0.199 -0.03,-0.256c-0.021,-0.055 -0.09,-0.39 -0.095,-0.424c-0.052,-0.261 -0.033,-0.26 -0.075,-0.525c-0.152,-1.938 0.603,-3.034 0.799,-3.422l0.071,-0.091c0.24,-0.417 0.965,-1.117 1.057,-1.206c0.266,-0.257 0.136,-0.32 0.279,-0.656c0.048,-0.112 0.026,-0.223 0.208,-0.583c0.099,-0.195 0.1,-0.192 0.107,-0.21c0.175,-0.452 0.985,-0.955 1.075,-0.984c0.483,-0.155 1.013,-0.212 1.102,-0.221c0.093,0.005 0.09,0.002 0.316,0.001l0.211,-0.001l0.316,0l0.369,0.001l0.42,0l0.263,0.001c0.025,0.002 0.023,-0.005 0.317,0.019l0.153,0.048c1.552,0.161 1.908,1.548 2.119,1.655c0.185,0.095 1.77,0.038 3.779,0.049c2.114,0.011 2.154,-0.001 2.239,-0.15c0.079,-0.138 0.136,-0.959 -0.095,-1.182c-0.549,-0.531 -0.715,-1.551 -0.155,-2.268c0.099,-0.126 0.22,-0.243 0.365,-0.346c0.563,-0.4 1.017,-0.426 1.802,-0.184c0.134,0.042 1.718,0.998 0.721,2.56c-0.099,0.155 -0.421,0.296 -0.331,1.223c0.042,0.435 0.374,0.345 1.033,0.353c2.534,-0.011 2.529,-0.008 3.315,0.003c0.371,-0.003 0.365,-0.006 0.737,-0.002l0.052,-0.001c1.127,-0.011 1.239,0.07 1.453,-0.362c0.078,-0.159 0.6,-1.214 1.762,-1.337c0.054,-0.013 0.253,-0.06 0.682,-0.1l0.003,0Zm3.516,6.225c-0.645,0 -1.169,0.524 -1.169,1.169c0,0.645 0.524,1.169 1.169,1.169c0.645,0 1.169,-0.524 1.169,-1.169c0,-0.645 -0.524,-1.169 -1.169,-1.169Zm-23.586,3.67l0.456,-1.117c0.052,-0.127 0.037,-0.272 -0.039,-0.385c-0.076,-0.114 -0.205,-0.182 -0.342,-0.182l-1.287,0c-0.137,0 -0.265,0.068 -0.342,0.182c-0.076,0.114 -0.091,0.258 -0.039,0.385l0.456,1.117c0.094,0.231 0.32,0.382 0.569,0.382c0.25,0 0.475,-0.151 0.569,-0.382l-0.001,0Zm-1.138,-5.602l-0.456,1.117c-0.052,0.127 -0.037,0.272 0.039,0.385c0.076,0.114 0.205,0.182 0.342,0.182l1.287,0c0.137,0 0.265,-0.068 0.342,-0.182c0.076,-0.114 0.091,-0.258 0.039,-0.385l-0.456,-1.117c-0.094,-0.231 -0.32,-0.382 -0.569,-0.382c-0.25,0 -0.475,0.151 -0.569,0.382l0.001,0Zm20.172,1.075c-0.645,0 -1.169,0.524 -1.169,1.169c0,0.645 0.524,1.169 1.169,1.169c0.645,0 1.169,-0.524 1.169,-1.169c0,-0.645 -0.524,-1.169 -1.169,-1.169Zm-22.404,2.295l1.117,0.456c0.127,0.052 0.272,0.037 0.385,-0.039c0.114,-0.076 0.182,-0.205 0.182,-0.342l0,-1.287c0,-0.137 -0.068,-0.265 -0.182,-0.342c-0.114,-0.076 -0.258,-0.091 -0.385,-0.039l-1.117,0.456c-0.231,0.094 -0.382,0.32 -0.382,0.569c0,0.25 0.151,0.475 0.382,0.569l0,-0.001Zm16.667,-0.569l-2.527,0c-0.135,0 -0.265,0.054 -0.36,0.149c-0.095,0.095 -0.149,0.225 -0.149,0.36c0,0.135 0.054,0.265 0.149,0.36c0.095,0.095 0.225,0.149 0.36,0.149l2.527,0c0.135,0 0.265,-0.054 0.36,-0.149c0.095,-0.095 0.149,-0.225 0.149,-0.36c0,-0.135 -0.054,-0.265 -0.149,-0.36c-0.095,-0.095 -0.225,-0.149 -0.36,-0.149Zm8.263,-3.208c-0.645,0 -1.169,0.524 -1.169,1.169c0,0.645 0.524,1.169 1.169,1.169c0.645,0 1.169,-0.524 1.169,-1.169c0,-0.645 -0.524,-1.169 -1.169,-1.169Zm-0.583,3.82c-0.645,0 -1.169,0.524 -1.169,1.169c0,0.645 0.524,1.169 1.169,1.169c0.645,0 1.169,-0.524 1.169,-1.169c0,-0.645 -0.524,-1.169 -1.169,-1.169Zm-18.745,-1.182l-1.117,-0.456c-0.127,-0.052 -0.272,-0.037 -0.385,0.039c-0.114,0.076 -0.182,0.205 -0.182,0.342l0,1.287c0,0.137 0.068,0.265 0.182,0.342c0.114,0.076 0.258,0.091 0.385,0.039l1.117,-0.456c0.231,-0.094 0.382,-0.32 0.382,-0.569c0,-0.25 -0.151,-0.475 -0.382,-0.569l0,0.001Zm6.871,0.569l-2.527,0c-0.135,0 -0.265,0.054 -0.36,0.149c-0.095,0.095 -0.149,0.225 -0.149,0.36c0,0.135 0.054,0.265 0.149,0.36c0.095,0.095 0.225,0.149 0.36,0.149l2.527,0c0.135,0 0.265,-0.054 0.36,-0.149c0.095,-0.095 0.149,-0.225 0.149,-0.36c0,-0.135 -0.054,-0.265 -0.149,-0.36c-0.095,-0.095 -0.225,-0.149 -0.36,-0.149Zm-4.582,4.204c-1.052,0 -1.907,0.854 -1.907,1.907c0,1.052 0.854,1.907 1.907,1.907c1.052,0 1.907,-0.854 1.907,-1.907c0,-1.052 -0.854,-1.907 -1.907,-1.907Zm10.983,0c-1.052,0 -1.907,0.854 -1.907,1.907c0,1.052 0.854,1.907 1.907,1.907c1.052,0 1.907,-0.854 1.907,-1.907c0,-1.052 -0.854,-1.907 -1.907,-1.907Z" style="fill:url(#_Linear48);"/><g id="Layer5"><circle cx="33.333" cy="33.333" r="31.125" style="fill:none;stroke:url(#_Linear49);stroke-width:4.17px;"/></g><defs><linearGradient id="_Linear1" x1="0" y1="0" x2="1" y2="0" gradientUnits="userSpaceOnUse" gradientTransform="matrix(42.87096,0,0,13.395048,11.897854,43.713621)"><stop offset="0" style="stop-color:#f0e800;stop-opacity:1"/><stop offset="1" style="stop-color:#ff3908;stop-opacity:1"/></linearGradient><linearGradient id="_Linear2" x1="0" y1="0" x2="1" y2="0" gradientUnits="userSpaceOnUse" gradientTransform="matrix(42.87096,0,0,13.395048,11.897854,43.713621)"><stop offset="0" style="stop-color:#f0e800;stop-opacity:1"/><stop offset="1" style="stop-color:#ff3908;stop-opacity:1"/></linearGradient><linearGradient id="_Linear3" x1="0" y1="0" x2="1" y2="0" gradientUnits="userSpaceOnUse" gradientTransform="matrix(42.87096,0,0,13.395048,11.897854,43.713621)"><stop offset="0" style="stop-color:#f0e800;stop-opacity:1"/><stop offset="1" style="stop-color:#ff3908;stop-opacity:1"/></linearGradient><linearGradient id="_Linear4" x1="0" y1="0" x2="1" y2="0" gradientUnits="userSpaceOnUse" gradientTransform="matrix(42.87096,0,0,13.395048,11.897854,43.713621)"><stop offset="0" style="stop-color:#f0e800;stop-opacity:1"/><stop offset="1" style="stop-color:#ff3908;stop-opacity:1"/></linearGradient><linearGradient id="_Linear5" x1="0" y1="0" x2="1" y2="0" gradientUnits="userSpaceOnUse" gradientTransform="matrix(42.87096,0,0,13.395048,11.897854,43.713621)"><stop offset="0" style="stop-color:#f0e800;stop-opacity:1"/><stop offset="1" style="stop-color:#ff3908;stop-opacity:1"/></linearGradient><linearGradient id="_Linear6" x1="0" y1="0" x2="1" y2="0" gradientUnits="userSpaceOnUse" gradientTransform="matrix(42.87096,0,0,13.395048,11.897854,43.713621)"><stop offset="0" style="stop-color:#f0e800;stop-opacity:1"/><stop offset="1" style="stop-color:#ff3908;stop-opacity:1"/></linearGradient><linearGradient id="_Linear7" x1="0" y1="0" x2="1" y2="0" gradientUnits="userSpaceOnUse" gradientTransform="matrix(42.87096,0,0,13.395048,11.897854,43.713621)"><stop offset="0" style="stop-color:#f0e800;stop-opacity:1"/><stop offset="1" style="stop-color:#ff3908;stop-opacity:1"/></linearGradient><linearGradient id="_Linear8" x1="0" y1="0" x2="1" y2="0" gradientUnits="userSpaceOnUse" gradientTransform="matrix(42.87096,0,0,13.395048,11.897854,43.713621)"><stop offset="0" style="stop-color:#f0e800;stop-opacity:1"/><stop offset="1" style="stop-color:#ff3908;stop-opacity:1"/></linearGradient><linearGradient id="_Linear9" x1="0" y1="0" x2="1" y2="0" gradientUnits="userSpaceOnUse" gradientTransform="matrix(42.87096,0,0,13.395048,11.897854,43.713621)"><stop offset="0" style="stop-color:#f0e800;stop-opacity:1"/><stop offset="1" style="stop-color:#ff3908;stop-opacity:1"/></linearGradient><linearGradient id="_Linear10" x1="0" y1="0" x2="1" y2="0" gradientUnits="userSpaceOnUse" gradientTransform="matrix(42.87096,0,0,13.395048,11.897854,43.713621)"><stop offset="0" style="stop-color:#f0e800;stop-opacity:1"/><stop offset="1" style="stop-color:#ff3908;stop-opacity:1"/></linearGradient><linearGradient id="_Linear11" x1="0" y1="0" x2="1" y2="0" gradientUnits="userSpaceOnUse" gradientTransform="matrix(42.87096,0,0,13.395048,11.897854,43.713621)"><stop offset="0" style="stop-color:#f0e800;stop-opacity:1"/><stop offset="1" style="stop-color:#ff3908;stop-opacity:1"/></linearGradient><linearGradient id="_Linear12" x1="0" y1="0" x2="1" y2="0" gradientUnits="userSpaceOnUse" gradientTransform="matrix(42.87096,0,0,13.395048,11.897854,43.713621)"><stop offset="0" style="stop-color:#f0e800;stop-opacity:1"/><stop offset="1" style="stop-color:#ff3908;stop-opacity:1"/></linearGradient><linearGradient id="_Linear13" x1="0" y1="0" x2="1" y2="0" gradientUnits="userSpaceOnUse" gradientTransform="matrix(42.87096,0,0,13.395048,11.897854,43.713621)"><stop offset="0" style="stop-color:#f0e800;stop-opacity:1"/><stop offset="1" style="stop-color:#ff3908;stop-opacity:1"/></linearGradient><linearGradient id="_Linear14" x1="0" y1="0" x2="1" y2="0" gradientUnits="userSpaceOnUse" gradientTransform="matrix(42.87096,0,0,13.395048,11.897854,43.713621)"><stop offset="0" style="stop-color:#f0e800;stop-opacity:1"/><stop offset="1" style="stop-color:#ff3908;stop-opacity:1"/></linearGradient><linearGradient id="_Linear15" x1="0" y1="0" x2="1" y2="0" gradientUnits="userSpaceOnUse" gradientTransform="matrix(42.87096,0,0,13.395048,11.897854,43.713621)"><stop offset="0" style="stop-color:#f0e800;stop-opacity:1"/><stop offset="1" style="stop-color:#ff3908;stop-opacity:1"/></linearGradient><linearGradient id="_Linear16" x1="0" y1="0" x2="1" y2="0" gradientUnits="userSpaceOnUse" gradientTransform="matrix(42.87096,0,0,13.395048,11.897854,43.713621)"><stop offset="0" style="stop-color:#f0e800;stop-opacity:1"/><stop offset="1" style="stop-color:#ff3908;stop-opacity:1"/></linearGradient><linearGradient id="_Linear17" x1="0" y1="0" x2="1" y2="0" gradientUnits="userSpaceOnUse" gradientTransform="matrix(42.87096,0,0,13.395048,11.897854,43.713621)"><stop offset="0" style="stop-color:#f0e800;stop-opacity:1"/><stop offset="1" style="stop-color:#ff3908;stop-opacity:1"/></linearGradient><linearGradient id="_Linear18" x1="0" y1="0" x2="1" y2="0" gradientUnits="userSpaceOnUse" gradientTransform="matrix(42.87096,0,0,13.395048,11.897854,43.713621)"><stop offset="0" style="stop-color:#f0e800;stop-opacity:1"/><stop offset="1" style="stop-color:#ff3908;stop-opacity:1"/></linearGradient><linearGradient id="_Linear19" x1="0" y1="0" x2="1" y2="0" gradientUnits="userSpaceOnUse" gradientTransform="matrix(42.87096,0,0,13.395048,11.897854,43.713621)"><stop offset="0" style="stop-color:#f0e800;stop-opacity:1"/><stop offset="1" style="stop-color:#ff3908;stop-opacity:1"/></linearGradient><linearGradient id="_Linear20" x1="0" y1="0" x2="1" y2="0" gradientUnits="userSpaceOnUse" gradientTransform="matrix(42.87096,0,0,13.395048,11.897854,43.713621)"><stop offset="0" style="stop-color:#f0e800;stop-opacity:1"/><stop offset="1" style="stop-color:#ff3908;stop-opacity:1"/></linearGradient><linearGradient id="_Linear21" x1="0" y1="0" x2="1" y2="0" gradientUnits="userSpaceOnUse" gradientTransform="matrix(42.87096,0,0,13.395048,11.897854,43.713621)"><stop offset="0" style="stop-color:#f0e800;stop-opacity:1"/><stop offset="1" style="stop-color:#ff3908;stop-opacity:1"/></linearGradient><linearGradient id="_Linear22" x1="0" y1="0" x2="1" y2="0" gradientUnits="userSpaceOnUse" gradientTransform="matrix(42.87096,0,0,13.395048,11.897854,43.713621)"><stop offset="0" style="stop-color:#f0e800;stop-opacity:1"/><stop offset="1" style="stop-color:#ff3908;stop-opacity:1"/></linearGradient><linearGradient id="_Linear23" x1="0" y1="0" x2="1" y2="0" gradientUnits="userSpaceOnUse" gradientTransform="matrix(42.87096,0,0,13.395048,11.897854,43.713621)"><stop offset="0" style="stop-color:#f0e800;stop-opacity:1"/><stop offset="1" style="stop-color:#ff3908;stop-opacity:1"/></linearGradient><linearGradient id="_Linear24" x1="0" y1="0" x2="1" y2="0" gradientUnits="userSpaceOnUse" gradientTransform="matrix(42.87096,0,0,13.395048,11.897854,43.713621)"><stop offset="0" style="stop-color:#f0e800;stop-opacity:1"/><stop offset="1" style="stop-color:#ff3908;stop-opacity:1"/></linearGradient><linearGradient id="_Linear25" x1="0" y1="0" x2="1" y2="0" gradientUnits="userSpaceOnUse" gradientTransform="matrix(42.87096,0,0,13.395048,11.897854,43.713621)"><stop offset="0" style="stop-color:#f0e800;stop-opacity:1"/><stop offset="1" style="stop-color:#ff3908;stop-opacity:1"/></linearGradient><linearGradient id="_Linear26" x1="0" y1="0" x2="1" y2="0" gradientUnits="userSpaceOnUse" gradientTransform="matrix(42.87096,0,0,13.395048,11.897854,43.713621)"><stop offset="0" style="stop-color:#f0e800;stop-opacity:1"/><stop offset="1" style="stop-color:#ff3908;stop-opacity:1"/></linearGradient><linearGradient id="_Linear27" x1="0" y1="0" x2="1" y2="0" gradientUnits="userSpaceOnUse" gradientTransform="matrix(42.87096,0,0,13.395048,11.897854,43.713621)"><stop offset="0" style="stop-color:#f0e800;stop-opacity:1"/><stop offset="1" style="stop-color:#ff3908;stop-opacity:1"/></linearGradient><linearGradient id="_Linear28" x1="0" y1="0" x2="1" y2="0" gradientUnits="userSpaceOnUse" gradientTransform="matrix(42.87096,0,0,13.395048,11.897854,43.713621)"><stop offset="0" style="stop-color:#f0e800;stop-opacity:1"/><stop offset="1" style="stop-color:#ff3908;stop-opacity:1"/></linearGradient><linearGradient id="_Linear29" x1="0" y1="0" x2="1" y2="0" gradientUnits="userSpaceOnUse" gradientTransform="matrix(42.87096,0,0,13.395048,11.897854,43.713621)"><stop offset="0" style="stop-color:#f0e800;stop-opacity:1"/><stop offset="1" style="stop-color:#ff3908;stop-opacity:1"/></linearGradient><linearGradient id="_Linear30" x1="0" y1="0" x2="1" y2="0" gradientUnits="userSpaceOnUse" gradientTransform="matrix(42.87096,0,0,13.395048,11.897854,43.713621)"><stop offset="0" style="stop-color:#f0e800;stop-opacity:1"/><stop offset="1" style="stop-color:#ff3908;stop-opacity:1"/></linearGradient><linearGradient id="_Linear31" x1="0" y1="0" x2="1" y2="0" gradientUnits="userSpaceOnUse" gradientTransform="matrix(42.87096,0,0,13.395048,11.897854,43.713621)"><stop offset="0" style="stop-color:#f0e800;stop-opacity:1"/><stop offset="1" style="stop-color:#ff3908;stop-opacity:1"/></linearGradient><linearGradient id="_Linear32" x1="0" y1="0" x2="1" y2="0" gradientUnits="userSpaceOnUse" gradientTransform="matrix(42.87096,0,0,13.395048,11.897854,43.713621)"><stop offset="0" style="stop-color:#f0e800;stop-opacity:1"/><stop offset="1" style="stop-color:#ff3908;stop-opacity:1"/></linearGradient><linearGradient id="_Linear33" x1="0" y1="0" x2="1" y2="0" gradientUnits="userSpaceOnUse" gradientTransform="matrix(42.87096,0,0,13.395048,11.897854,43.713621)"><stop offset="0" style="stop-color:#f0e800;stop-opacity:1"/><stop offset="1" style="stop-color:#ff3908;stop-opacity:1"/></linearGradient><linearGradient id="_Linear34" x1="0" y1="0" x2="1" y2="0" gradientUnits="userSpaceOnUse" gradientTransform="matrix(42.87096,0,0,13.395048,11.897854,43.713621)"><stop offset="0" style="stop-color:#f0e800;stop-opacity:1"/><stop offset="1" style="stop-color:#ff3908;stop-opacity:1"/></linearGradient><linearGradient id="_Linear35" x1="0" y1="0" x2="1" y2="0" gradientUnits="userSpaceOnUse" gradientTransform="matrix(42.87096,0,0,13.395048,11.897854,43.713621)"><stop offset="0" style="stop-color:#f0e800;stop-opacity:1"/><stop offset="1" style="stop-color:#ff3908;stop-opacity:1"/></linearGradient><linearGradient id="_Linear36" x1="0" y1="0" x2="1" y2="0" gradientUnits="userSpaceOnUse" gradientTransform="matrix(42.87096,0,0,13.395048,11.897854,43.713621)"><stop offset="0" style="stop-color:#f0e800;stop-opacity:1"/><stop offset="1" style="stop-color:#ff3908;stop-opacity:1"/></linearGradient><linearGradient id="_Linear37" x1="0" y1="0" x2="1" y2="0" gradientUnits="userSpaceOnUse" gradientTransform="matrix(42.87096,0,0,13.395048,11.897854,43.713621)"><stop offset="0" style="stop-color:#f0e800;stop-opacity:1"/><stop offset="1" style="stop-color:#ff3908;stop-opacity:1"/></linearGradient><linearGradient id="_Linear38" x1="0" y1="0" x2="1" y2="0" gradientUnits="userSpaceOnUse" gradientTransform="matrix(42.87096,0,0,13.395048,11.897854,43.713621)"><stop offset="0" style="stop-color:#f0e800;stop-opacity:1"/><stop offset="1" style="stop-color:#ff3908;stop-opacity:1"/></linearGradient><linearGradient id="_Linear39" x1="0" y1="0" x2="1" y2="0" gradientUnits="userSpaceOnUse" gradientTransform="matrix(42.87096,0,0,13.395048,11.897854,43.713621)"><stop offset="0" style="stop-color:#f0e800;stop-opacity:1"/><stop offset="1" style="stop-color:#ff3908;stop-opacity:1"/></linearGradient><linearGradient id="_Linear40" x1="0" y1="0" x2="1" y2="0" gradientUnits="userSpaceOnUse" gradientTransform="matrix(42.87096,0,0,13.395048,11.897854,43.713621)"><stop offset="0" style="stop-color:#f0e800;stop-opacity:1"/><stop offset="1" style="stop-color:#ff3908;stop-opacity:1"/></linearGradient><linearGradient id="_Linear41" x1="0" y1="0" x2="1" y2="0" gradientUnits="userSpaceOnUse" gradientTransform="matrix(42.87096,0,0,13.395048,11.897854,43.713621)"><stop offset="0" style="stop-color:#f0e800;stop-opacity:1"/><stop offset="1" style="stop-color:#ff3908;stop-opacity:1"/></linearGradient><linearGradient id="_Linear42" x1="0" y1="0" x2="1" y2="0" gradientUnits="userSpaceOnUse" gradientTransform="matrix(42.87096,0,0,13.395048,11.897854,43.713621)"><stop offset="0" style="stop-color:#f0e800;stop-opacity:1"/><stop offset="1" style="stop-color:#ff3908;stop-opacity:1"/></linearGradient><linearGradient id="_Linear43" x1="0" y1="0" x2="1" y2="0" gradientUnits="userSpaceOnUse" gradientTransform="matrix(42.87096,0,0,13.395048,11.897854,43.713621)"><stop offset="0" style="stop-color:#f0e800;stop-opacity:1"/><stop offset="1" style="stop-color:#ff3908;stop-opacity:1"/></linearGradient><linearGradient id="_Linear44" x1="0" y1="0" x2="1" y2="0" gradientUnits="userSpaceOnUse" gradientTransform="matrix(42.87096,0,0,13.395048,11.897854,43.713621)"><stop offset="0" style="stop-color:#f0e800;stop-opacity:1"/><stop offset="1" style="stop-color:#ff3908;stop-opacity:1"/></linearGradient><linearGradient id="_Linear45" x1="0" y1="0" x2="1" y2="0" gradientUnits="userSpaceOnUse" gradientTransform="matrix(42.87096,0,0,13.395048,11.897854,43.713621)"><stop offset="0" style="stop-color:#f0e800;stop-opacity:1"/><stop offset="1" style="stop-color:#ff3908;stop-opacity:1"/></linearGradient><linearGradient id="_Linear46" x1="0" y1="0" x2="1" y2="0" gradientUnits="userSpaceOnUse" gradientTransform="matrix(42.87096,0,0,13.395048,11.897854,43.713621)"><stop offset="0" style="stop-color:#f0e800;stop-opacity:1"/><stop offset="1" style="stop-color:#ff3908;stop-opacity:1"/></linearGradient><linearGradient id="_Linear47" x1="0" y1="0" x2="1" y2="0" gradientUnits="userSpaceOnUse" gradientTransform="matrix(42.87096,0,0,13.395048,11.897854,43.713621)"><stop offset="0" style="stop-color:#f0e800;stop-opacity:1"/><stop offset="1" style="stop-color:#ff3908;stop-opacity:1"/></linearGradient><linearGradient id="_Linear48" x1="0" y1="0" x2="1" y2="0" gradientUnits="userSpaceOnUse" gradientTransform="matrix(40.447901,0,0,40.447901,5.136488,21.146361)"><stop offset="0" style="stop-color:#ffff0c;stop-opacity:1"/><stop offset="1" style="stop-color:#ff4b08;stop-opacity:1"/></linearGradient><linearGradient id="_Linear49" x1="0" y1="0" x2="1" y2="0" gradientUnits="userSpaceOnUse" gradientTransform="matrix(62.249282,0,0,62.249282,2.208692,33.333333)"><stop offset="0" style="stop-color:#c24000;stop-opacity:1"/><stop offset="1" style="stop-color:#ffe827;stop-opacity:1"/></linearGradient></defs></svg>