<?xml version="1.0" encoding="UTF-8" standalone="no"?>
<!-- Created with Inkscape (http://www.inkscape.org/) -->

<svg
   width="16"
   height="16"
   viewBox="0 0 16 16"
   version="1.1"
   id="svg848"
   inkscape:version="1.2.2 (732a01da63, 2022-12-09)"
   sodipodi:docname="Lives.svg"
   xml:space="preserve"
   xmlns:inkscape="http://www.inkscape.org/namespaces/inkscape"
   xmlns:sodipodi="http://sodipodi.sourceforge.net/DTD/sodipodi-0.dtd"
   xmlns="http://www.w3.org/2000/svg"
   xmlns:svg="http://www.w3.org/2000/svg"
   xmlns:rdf="http://www.w3.org/1999/02/22-rdf-syntax-ns#"
   xmlns:cc="http://creativecommons.org/ns#"
   xmlns:dc="http://purl.org/dc/elements/1.1/"><title
     id="title5848">Lives</title><sodipodi:namedview
     id="namedview850"
     pagecolor="#ffffff"
     bordercolor="#000000"
     borderopacity="0.25"
     inkscape:showpageshadow="2"
     inkscape:pageopacity="0.0"
     inkscape:pagecheckerboard="0"
     inkscape:deskcolor="#d1d1d1"
     inkscape:document-units="mm"
     showgrid="false"
     inkscape:zoom="5.6568545"
     inkscape:cx="24.306795"
     inkscape:cy="22.804193"
     inkscape:window-width="1920"
     inkscape:window-height="1009"
     inkscape:window-x="-8"
     inkscape:window-y="-8"
     inkscape:window-maximized="1"
     inkscape:current-layer="layer1" /><defs
     id="defs845" /><g
     inkscape:label="Слой 1"
     inkscape:groupmode="layer"
     id="layer1"><rect
       style="fill:#60e9ff;fill-opacity:1;stroke-width:1.2483;stroke-dashoffset:28.7769;paint-order:markers fill stroke"
       id="rect4770"
       width="16.000002"
       height="5.1888952"
       x="-7.1525574e-07"
       y="5.4055524" /><rect
       style="fill:#ffffff;fill-opacity:1;stroke-width:2.78002;stroke-dashoffset:28.7769;paint-order:markers fill stroke"
       id="rect7497"
       width="16"
       height="2.4045525"
       x="-8.3266727e-16"
       y="6.7977238" /><g
       aria-label="321"
       id="text373"
       style="font-size:5.56522px;font-family:'Public Pixel';-inkscape-font-specification:'Public Pixel, Normal';fill:#a2a2a2;stroke-width:2.85929;stroke-dashoffset:28.7769;paint-order:markers stroke fill"><path
         d="M 0.69565248,15.304348 H 0 v -0.695653 h 1.391305 v 0.695653 H 3.4782624 V 13.913043 H 1.391305 V 13.21739 H 3.4782624 V 11.826085 H 1.391305 v 0.695653 H 0 V 11.826085 H 0.69565248 V 11.130433 H 4.1739149 v 0.695652 H 4.8695674 V 13.21739 H 4.1739149 v 0.695653 h 0.6956525 v 1.391305 H 4.1739149 V 16 H 0.69565248 Z"
         id="path429" /><path
         d="M 5.5652199,16 V 14.608695 H 6.2608724 V 13.913043 H 6.9565248 V 13.21739 h 1.391305 V 12.521738 H 9.0434823 V 11.826085 H 6.9565248 v 0.695653 H 5.5652199 v -0.695653 h 0.6956525 v -0.695652 h 3.4782624 v 0.695652 h 0.6956522 v 0.695653 H 9.7391348 V 13.21739 H 9.0434823 v 0.695653 h -1.391305 v 0.695652 H 6.9565248 v 0.695653 H 10.434787 V 16 Z"
         id="path431" /><path
         d="m 11.826092,16 v -0.695652 h 1.391305 v -3.478263 h -1.391305 v -0.695652 h 2.78261 v 4.173915 h 1.391305 V 16 Z"
         id="path433" /></g></g><metadata
     id="metadata5846"><rdf:RDF><cc:Work
         rdf:about=""><dc:title>Lives</dc:title></cc:Work></rdf:RDF></metadata></svg>
