<?xml version="1.0" encoding="UTF-8" standalone="no"?>
<!-- Created with Inkscape (http://www.inkscape.org/) -->

<svg
   width="16"
   height="16"
   viewBox="0 0 16 16"
   version="1.1"
   id="svg848"
   inkscape:version="1.2.2 (732a01da63, 2022-12-09)"
   sodipodi:docname="ProjectileChecks.svg"
   xml:space="preserve"
   xmlns:inkscape="http://www.inkscape.org/namespaces/inkscape"
   xmlns:sodipodi="http://sodipodi.sourceforge.net/DTD/sodipodi-0.dtd"
   xmlns="http://www.w3.org/2000/svg"
   xmlns:svg="http://www.w3.org/2000/svg"
   xmlns:rdf="http://www.w3.org/1999/02/22-rdf-syntax-ns#"
   xmlns:cc="http://creativecommons.org/ns#"
   xmlns:dc="http://purl.org/dc/elements/1.1/"><title
     id="title5848">Teleport</title><sodipodi:namedview
     id="namedview850"
     pagecolor="#ffffff"
     bordercolor="#000000"
     borderopacity="0.25"
     inkscape:showpageshadow="2"
     inkscape:pageopacity="0.0"
     inkscape:pagecheckerboard="0"
     inkscape:deskcolor="#d1d1d1"
     inkscape:document-units="mm"
     showgrid="false"
     inkscape:zoom="8.0000004"
     inkscape:cx="20.312499"
     inkscape:cy="34.249998"
     inkscape:window-width="1920"
     inkscape:window-height="1009"
     inkscape:window-x="-8"
     inkscape:window-y="-8"
     inkscape:window-maximized="1"
     inkscape:current-layer="layer1" /><defs
     id="defs845" /><g
     inkscape:label="Слой 1"
     inkscape:groupmode="layer"
     id="layer1"><rect
       style="fill:#60e9ff;fill-opacity:1;stroke-width:1.2483;stroke-dashoffset:28.7769;paint-order:markers fill stroke"
       id="rect4770"
       width="16.000002"
       height="5.1888952"
       x="-7.1525574e-07"
       y="5.4055524" /><rect
       style="fill:#ffffff;fill-opacity:1;stroke-width:2.78002;stroke-dashoffset:28.7769;paint-order:markers fill stroke"
       id="rect7497"
       width="16"
       height="2.4045525"
       x="2.6645353e-15"
       y="6.7977238" /><g
       id="g5546"
       transform="matrix(1.2700481,0,0,1.2700481,-4.3120668,-4.3240232)"><path
         style="fill:#a2a2a2;fill-opacity:1;stroke-width:2.89812;stroke-dashoffset:28.7769;paint-order:markers fill stroke"
         id="path4737"
         d="m 7.2870142,12.378206 c 0.394416,0.889564 0.7228876,1.805762 1.1190762,2.69462 0.1021075,0.229089 0.2182026,0.451739 0.3218882,0.680119 0.036685,0.08079 0.014584,0.274037 0.09906,0.247055 0.5935359,-0.18947 1.1212134,-0.543699 1.6818204,-0.815551 0.06423,-0.01085 0.156125,0.02158 0.192651,-0.03233 0.170241,-0.251281 0.228123,-0.565673 0.387487,-0.823986 0.43045,-0.697718 1.608934,-2.150601 2.047304,-2.724071 3.757406,-4.9153914 -1.080228,1.345258 2.306447,-3.0276091 0.183461,-0.2205304 0.366933,-0.4410628 0.550401,-0.6615951 0,0 -1.438147,-1.1948781 -1.438147,-1.1948781 v 0 c -0.196859,0.2372293 -0.39372,0.4744567 -0.590581,0.7116841 -3.300267,4.2623182 1.264094,-1.6471408 -2.303948,3.0243872 -0.408557,0.534912 -0.841219,1.051502 -1.238857,1.59458 -0.5606107,0.765661 -1.3194519,1.745427 -1.5516441,2.725367 -0.09173,0.387098 -0.03919,0.794666 -0.058785,1.191997 0.5824688,-0.224479 1.2199851,-0.339544 1.7474101,-0.67344 0.104557,-0.06619 -0.09038,-0.230526 -0.141429,-0.34325 -0.09289,-0.205066 -0.198516,-0.404234 -0.29028,-0.609808 -0.4213978,-0.944032 -0.7621631,-1.920921 -1.1984187,-2.858621 0,0 -1.641453,0.895337 -1.641453,0.895337 z" /><ellipse
         style="fill:#a2a2a2;fill-opacity:1;stroke-width:2.28552;stroke-dashoffset:28.7769;paint-order:markers fill stroke"
         id="path4806"
         cx="10.475389"
         cy="14.9583"
         rx="0.27075952"
         ry="0.3524186" /></g></g><metadata
     id="metadata5846"><rdf:RDF><cc:Work
         rdf:about=""><dc:title>Teleport</dc:title></cc:Work></rdf:RDF></metadata></svg>
